Light.ufo
<glyph name="equal" format="1">
  <advance width="615"/>
  <unicode hex="003D"/>
  <outline>
    <contour>
      <point x="65" y="158" type="line"/>
      <point x="65" y="207" type="line"/>
      <point x="550" y="207" type="line"/>
      <point x="550" y="158" type="line"/>
    </contour>
    <contour>
      <point x="65" y="298" type="line"/>
      <point x="65" y="347" type="line"/>
      <point x="550" y="347" type="line"/>
      <point x="550" y="298" type="line"/>
    </contour>
  </outline>
</glyph>
<glyph name="H" format="1">
  <advance width="687"/>
  <unicode hex="0048"/>
  <outline>
    <contour>
      <point x="113" y="355" type="line"/>
      <point x="113" y="407" type="line"/>
      <point x="585" y="407" type="line"/>
      <point x="585" y="355" type="line"/>
    </contour>
    <contour>
      <point x="548" y="700" type="line"/>
      <point x="604" y="700" type="line"/>
      <point x="604" y="0" type="line"/>
      <point x="548" y="0" type="line"/>
    </contour>
    <contour>
      <point x="84" y="700" type="line"/>
      <point x="139" y="700" type="line"/>
      <point x="139" y="0" type="line"/>
      <point x="84" y="0" type="line"/>
    </contour>
  </outline>
</glyph>
<glyph name="backslash" format="1">
  <advance width="483"/>
  <unicode hex="005C"/>
  <outline>
    <contour>
      <point x="15" y="700" type="line"/>
      <point x="71" y="700" type="line"/>
      <point x="468" y="0" type="line"/>
      <point x="412" y="0" type="line"/>
    </contour>
  </outline>
</glyph>
<glyph name="m" format="1">
  <advance width="744"/>
  <unicode hex="006D"/>
  <outline>
    <contour>
      <point x="346" y="296" type="line" smooth="yes"/>
      <point x="346" y="374"/>
      <point x="319" y="421"/>
      <point x="252" y="421" type="curve" smooth="yes"/>
      <point x="182" y="421"/>
      <point x="131" y="358"/>
      <point x="131" y="280" type="curve"/>
      <point x="113" y="280" type="line"/>
      <point x="113" y="389"/>
      <point x="177" y="470"/>
      <point x="264" y="470" type="curve" smooth="yes"/>
      <point x="351" y="470"/>
      <point x="398" y="409"/>
      <point x="398" y="302" type="curve" smooth="yes"/>
      <point x="398" y="0" type="line"/>
      <point x="346" y="0" type="line"/>
    </contour>
    <contour>
      <point x="131" y="460" type="line"/>
      <point x="131" y="0" type="line"/>
      <point x="79" y="0" type="line"/>
      <point x="79" y="460" type="line"/>
    </contour>
    <contour>
      <point x="665" y="302" type="curve" smooth="yes"/>
      <point x="665" y="0" type="line"/>
      <point x="613" y="0" type="line"/>
      <point x="613" y="296" type="line" smooth="yes"/>
      <point x="613" y="374"/>
      <point x="586" y="421"/>
      <point x="519" y="421" type="curve" smooth="yes"/>
      <point x="449" y="421"/>
      <point x="398" y="358"/>
      <point x="398" y="280" type="curve"/>
      <point x="371" y="280" type="line"/>
      <point x="371" y="389"/>
      <point x="444" y="470"/>
      <point x="531" y="470" type="curve" smooth="yes"/>
      <point x="618" y="470"/>
      <point x="665" y="409"/>
    </contour>
  </outline>
</glyph>
<glyph name="w" format="1">
  <advance width="656"/>
  <unicode hex="0077"/>
  <outline>
    <contour>
      <point x="589" y="460" type="line"/>
      <point x="647" y="460" type="line"/>
      <point x="468" y="-27" type="line"/>
      <point x="450" y="64" type="line"/>
    </contour>
    <contour>
      <point x="305" y="401" type="line"/>
      <point x="323" y="487" type="line"/>
      <point x="480" y="64" type="line"/>
      <point x="468" y="-27" type="line"/>
    </contour>
    <contour>
      <point x="323" y="487" type="line"/>
      <point x="341" y="401" type="line"/>
      <point x="188" y="-27" type="line"/>
      <point x="176" y="64" type="line"/>
    </contour>
    <contour>
      <point x="9" y="460" type="line"/>
      <point x="67" y="460" type="line"/>
      <point x="206" y="64" type="line"/>
      <point x="188" y="-27" type="line"/>
    </contour>
  </outline>
</glyph>
<glyph name="sterling" format="1">
  <advance width="580"/>
  <unicode hex="00A3"/>
  <outline>
    <contour>
      <point x="75" y="344" type="line"/>
      <point x="415" y="344" type="line"/>
      <point x="415" y="295" type="line"/>
      <point x="75" y="295" type="line"/>
    </contour>
    <contour>
      <point x="462" y="487" type="line"/>
      <point x="458" y="562"/>
      <point x="417" y="656"/>
      <point x="317" y="656" type="curve" smooth="yes"/>
      <point x="240" y="656"/>
      <point x="180" y="605"/>
      <point x="180" y="527" type="curve" smooth="yes"/>
      <point x="180" y="408"/>
      <point x="286" y="374"/>
      <point x="286" y="264" type="curve" smooth="yes"/>
      <point x="286" y="158"/>
      <point x="188" y="61"/>
      <point x="134" y="30" type="curve"/>
      <point x="134" y="52" type="line"/>
      <point x="509" y="52" type="line"/>
      <point x="509" y="0" type="line"/>
      <point x="76" y="0" type="line"/>
      <point x="166" y="102"/>
      <point x="233" y="167"/>
      <point x="233" y="255" type="curve" smooth="yes"/>
      <point x="233" y="352"/>
      <point x="124" y="394"/>
      <point x="124" y="526" type="curve" smooth="yes"/>
      <point x="124" y="633"/>
      <point x="202" y="710"/>
      <point x="317" y="710" type="curve" smooth="yes"/>
      <point x="450" y="710"/>
      <point x="504" y="584"/>
      <point x="509" y="504" type="curve"/>
    </contour>
  </outline>
</glyph>
<glyph name="yen" format="1">
  <advance width="574"/>
  <unicode hex="00A5"/>
  <outline>
    <contour>
      <point x="252" y="326" type="line"/>
      <point x="308" y="326" type="line"/>
      <point x="308" y="0" type="line"/>
      <point x="252" y="0" type="line"/>
    </contour>
    <contour>
      <point x="481" y="700" type="line"/>
      <point x="542" y="700" type="line"/>
      <point x="279" y="240" type="line"/>
      <point x="22" y="700" type="line"/>
      <point x="83" y="700" type="line"/>
      <point x="279" y="338" type="line"/>
    </contour>
    <contour>
      <point x="39" y="142" type="line"/>
      <point x="39" y="191" type="line"/>
      <point x="521" y="191" type="line"/>
      <point x="521" y="142" type="line"/>
    </contour>
    <contour>
      <point x="39" y="282" type="line"/>
      <point x="39" y="331" type="line"/>
      <point x="521" y="331" type="line"/>
      <point x="521" y="282" type="line"/>
    </contour>
  </outline>
</glyph>
<glyph name="registered" format="1">
  <advance width="800"/>
  <unicode hex="00AE"/>
  <outline>
    <contour>
      <point x="356" y="350" type="line"/>
      <point x="393" y="350" type="line"/>
      <point x="536" y="150" type="line"/>
      <point x="495" y="150" type="line"/>
    </contour>
    <contour>
      <point x="284" y="570" type="line"/>
      <point x="318" y="570" type="line"/>
      <point x="318" y="150" type="line"/>
      <point x="284" y="150" type="line"/>
    </contour>
    <contour>
      <point x="302" y="540" type="line"/>
      <point x="302" y="570" type="line"/>
      <point x="380" y="570" type="line" smooth="yes"/>
      <point x="461" y="570"/>
      <point x="523" y="525"/>
      <point x="523" y="448" type="curve" smooth="yes"/>
      <point x="523" y="371"/>
      <point x="461" y="326"/>
      <point x="380" y="326" type="curve" smooth="yes"/>
      <point x="302" y="326" type="line"/>
      <point x="302" y="356" type="line"/>
      <point x="380" y="356" type="line" smooth="yes"/>
      <point x="444" y="356"/>
      <point x="490" y="387"/>
      <point x="490" y="448" type="curve" smooth="yes"/>
      <point x="490" y="509"/>
      <point x="444" y="540"/>
      <point x="380" y="540" type="curve" smooth="yes"/>
    </contour>
    <contour>
      <point x="77" y="350" type="curve" smooth="yes"/>
      <point x="77" y="162"/>
      <point x="219" y="24"/>
      <point x="400" y="24" type="curve" smooth="yes"/>
      <point x="581" y="24"/>
      <point x="723" y="162"/>
      <point x="723" y="350" type="curve" smooth="yes"/>
      <point x="723" y="538"/>
      <point x="581" y="676"/>
      <point x="400" y="676" type="curve" smooth="yes"/>
      <point x="219" y="676"/>
      <point x="77" y="538"/>
    </contour>
    <contour>
      <point x="40" y="350" type="curve" smooth="yes"/>
      <point x="40" y="559"/>
      <point x="196" y="710"/>
      <point x="400" y="710" type="curve" smooth="yes"/>
      <point x="604" y="710"/>
      <point x="760" y="559"/>
      <point x="760" y="350" type="curve" smooth="yes"/>
      <point x="760" y="141"/>
      <point x="604" y="-10"/>
      <point x="400" y="-10" type="curve" smooth="yes"/>
      <point x="196" y="-10"/>
      <point x="40" y="141"/>
    </contour>
  </outline>
</glyph>
<glyph name="degree" format="1">
  <advance width="278"/>
  <unicode hex="00B0"/>
  <outline>
    <contour>
      <point x="20" y="600" type="curve" smooth="yes"/>
      <point x="20" y="670"/>
      <point x="71" y="720"/>
      <point x="139" y="720" type="curve" smooth="yes"/>
      <point x="207" y="720"/>
      <point x="258" y="670"/>
      <point x="258" y="600" type="curve" smooth="yes"/>
      <point x="258" y="530"/>
      <point x="207" y="480"/>
      <point x="139" y="480" type="curve" smooth="yes"/>
      <point x="71" y="480"/>
      <point x="20" y="530"/>
    </contour>
    <contour>
      <point x="48" y="600" type="curve" smooth="yes"/>
      <point x="48" y="545"/>
      <point x="88" y="507"/>
      <point x="139" y="507" type="curve" smooth="yes"/>
      <point x="190" y="507"/>
      <point x="230" y="545"/>
      <point x="230" y="600" type="curve" smooth="yes"/>
      <point x="230" y="655"/>
      <point x="190" y="693"/>
      <point x="139" y="693" type="curve" smooth="yes"/>
      <point x="88" y="693"/>
      <point x="48" y="655"/>
    </contour>
  </outline>
</glyph>
<glyph name="periodcentered" format="1">
  <advance width="276"/>
  <unicode hex="00B7"/>
  <outline>
    <contour>
      <point x="101" y="232" type="curve" smooth="yes"/>
      <point x="101" y="253"/>
      <point x="118" y="270"/>
      <point x="138" y="270" type="curve" smooth="yes"/>
      <point x="158" y="270"/>
      <point x="176" y="253"/>
      <point x="176" y="232" type="curve" smooth="yes"/>
      <point x="176" y="211"/>
      <point x="158" y="195"/>
      <point x="138" y="195" type="curve" smooth="yes"/>
      <point x="118" y="195"/>
      <point x="101" y="211"/>
    </contour>
  </outline>
</glyph>
<glyph name="questiondown" format="1">
  <advance width="551"/>
  <unicode hex="00BF"/>
  <outline>
    <contour>
      <point x="348" y="676" type="curve" smooth="yes"/>
      <point x="348" y="655"/>
      <point x="331" y="638"/>
      <point x="311" y="638" type="curve" smooth="yes"/>
      <point x="291" y="638"/>
      <point x="274" y="655"/>
      <point x="274" y="676" type="curve" smooth="yes"/>
      <point x="274" y="697"/>
      <point x="291" y="713"/>
      <point x="311" y="713" type="curve" smooth="yes"/>
      <point x="331" y="713"/>
      <point x="348" y="697"/>
    </contour>
    <contour>
      <point x="343" y="355" type="line"/>
      <point x="285" y="355" type="line"/>
      <point x="290" y="530" type="line"/>
      <point x="329" y="530" type="line"/>
    </contour>
    <contour>
      <point x="121" y="192" type="curve" smooth="yes"/>
      <point x="121" y="100"/>
      <point x="182" y="39"/>
      <point x="284" y="39" type="curve" smooth="yes"/>
      <point x="361" y="39"/>
      <point x="410" y="76"/>
      <point x="446" y="134" type="curve"/>
      <point x="489" y="107" type="line"/>
      <point x="443" y="37"/>
      <point x="389" y="-10"/>
      <point x="278" y="-10" type="curve" smooth="yes"/>
      <point x="153" y="-10"/>
      <point x="68" y="77"/>
      <point x="68" y="192" type="curve" smooth="yes"/>
      <point x="68" y="303"/>
      <point x="174" y="391"/>
      <point x="295" y="391" type="curve"/>
      <point x="328" y="355" type="line"/>
      <point x="204" y="355"/>
      <point x="121" y="276"/>
    </contour>
  </outline>
</glyph>
<glyph name="Atilde" format="1">
  <advance width="636"/>
  <unicode hex="00C3"/>
  <outline>
    <contour>
      <point x="139" y="235" type="line"/>
      <point x="157" y="287" type="line"/>
      <point x="481" y="287" type="line"/>
      <point x="499" y="235" type="line"/>
    </contour>
    <contour>
      <point x="318" y="600" type="line"/>
      <point x="182" y="269" type="line"/>
      <point x="176" y="257" type="line"/>
      <point x="71" y="0" type="line"/>
      <point x="9" y="0" type="line"/>
      <point x="318" y="727" type="line"/>
      <point x="627" y="0" type="line"/>
      <point x="565" y="0" type="line"/>
      <point x="461" y="253" type="line"/>
      <point x="456" y="266" type="line"/>
    </contour>
    <contour>
      <point x="169" y="806" type="line"/>
      <point x="175" y="847"/>
      <point x="211" y="878"/>
      <point x="256" y="878" type="curve" smooth="yes"/>
      <point x="317" y="878"/>
      <point x="326" y="831"/>
      <point x="380" y="831" type="curve" smooth="yes"/>
      <point x="403" y="831"/>
      <point x="418" y="847"/>
      <point x="436" y="879" type="curve"/>
      <point x="467" y="852" type="line"/>
      <point x="451" y="815"/>
      <point x="419" y="787"/>
      <point x="377" y="787" type="curve" smooth="yes"/>
      <point x="322" y="787"/>
      <point x="301" y="834"/>
      <point x="256" y="834" type="curve" smooth="yes"/>
      <point x="215" y="834"/>
      <point x="204" y="802"/>
      <point x="204" y="783" type="curve"/>
    </contour>
  </outline>
</glyph>
<glyph name="Aring" format="1">
  <advance width="636"/>
  <unicode hex="00C5"/>
  <outline>
    <contour>
      <point x="139" y="235" type="line"/>
      <point x="157" y="287" type="line"/>
      <point x="481" y="287" type="line"/>
      <point x="499" y="235" type="line"/>
    </contour>
    <contour>
      <point x="318" y="600" type="line"/>
      <point x="182" y="269" type="line"/>
      <point x="176" y="257" type="line"/>
      <point x="71" y="0" type="line"/>
      <point x="9" y="0" type="line"/>
      <point x="318" y="727" type="line"/>
      <point x="627" y="0" type="line"/>
      <point x="565" y="0" type="line"/>
      <point x="461" y="253" type="line"/>
      <point x="456" y="266" type="line"/>
    </contour>
    <contour>
      <point x="216" y="802" type="curve" smooth="yes"/>
      <point x="216" y="862"/>
      <point x="266" y="902"/>
      <point x="318" y="902" type="curve" smooth="yes"/>
      <point x="370" y="902"/>
      <point x="420" y="862"/>
      <point x="420" y="802" type="curve" smooth="yes"/>
      <point x="420" y="742"/>
      <point x="370" y="702"/>
      <point x="318" y="702" type="curve" smooth="yes"/>
      <point x="266" y="702"/>
      <point x="216" y="742"/>
    </contour>
    <contour>
      <point x="251" y="802" type="curve" smooth="yes"/>
      <point x="251" y="761"/>
      <point x="284" y="734"/>
      <point x="318" y="734" type="curve" smooth="yes"/>
      <point x="352" y="734"/>
      <point x="385" y="761"/>
      <point x="385" y="802" type="curve" smooth="yes"/>
      <point x="385" y="843"/>
      <point x="352" y="870"/>
      <point x="318" y="870" type="curve" smooth="yes"/>
      <point x="284" y="870"/>
      <point x="251" y="843"/>
    </contour>
  </outline>
</glyph>
<glyph name="Ccedilla" format="1">
  <advance width="685"/>
  <unicode hex="00C7"/>
  <outline>
    <contour>
      <point x="103" y="350" type="curve" smooth="yes"/>
      <point x="103" y="172"/>
      <point x="228" y="47"/>
      <point x="386" y="47" type="curve" smooth="yes"/>
      <point x="485" y="47"/>
      <point x="558" y="83"/>
      <point x="611" y="143" type="curve"/>
      <point x="611" y="69" type="line"/>
      <point x="552" y="17"/>
      <point x="488" y="-9"/>
      <point x="386" y="-9" type="curve" smooth="yes"/>
      <point x="192" y="-9"/>
      <point x="44" y="141"/>
      <point x="44" y="350" type="curve" smooth="yes"/>
      <point x="44" y="559"/>
      <point x="192" y="709"/>
      <point x="386" y="709" type="curve" smooth="yes"/>
      <point x="488" y="709"/>
      <point x="552" y="683"/>
      <point x="611" y="631" type="curve"/>
      <point x="611" y="558" type="line"/>
      <point x="559" y="618"/>
      <point x="483" y="653"/>
      <point x="386" y="653" type="curve" smooth="yes"/>
      <point x="229" y="653"/>
      <point x="103" y="529"/>
    </contour>
    <contour>
      <point x="390" y="34" type="line"/>
      <point x="431" y="34" type="line"/>
      <point x="370" y="-65" type="line"/>
      <point x="317" y="-102" type="line"/>
    </contour>
    <contour>
      <point x="477" y="-128" type="curve"/>
      <point x="438" y="-128" type="line"/>
      <point x="438" y="-96"/>
      <point x="415" y="-81"/>
      <point x="383" y="-81" type="curve" smooth="yes"/>
      <point x="365" y="-81"/>
      <point x="340" y="-86"/>
      <point x="317" y="-102" type="curve"/>
      <point x="345" y="-73" type="line"/>
      <point x="371" y="-57"/>
      <point x="383" y="-54"/>
      <point x="404" y="-54" type="curve" smooth="yes"/>
      <point x="437" y="-54"/>
      <point x="477" y="-79"/>
    </contour>
    <contour>
      <point x="477" y="-128" type="line"/>
      <point x="477" y="-189"/>
      <point x="425" y="-222"/>
      <point x="370" y="-222" type="curve" smooth="yes"/>
      <point x="333" y="-222"/>
      <point x="309" y="-212"/>
      <point x="281" y="-184" type="curve"/>
      <point x="303" y="-158" type="line"/>
      <point x="326" y="-177"/>
      <point x="341" y="-186"/>
      <point x="370" y="-186" type="curve" smooth="yes"/>
      <point x="409" y="-186"/>
      <point x="438" y="-165"/>
      <point x="438" y="-128" type="curve"/>
    </contour>
  </outline>
</glyph>
<glyph name="Igrave" format="1">
  <advance width="219"/>
  <unicode hex="00CC"/>
  <outline>
    <contour>
      <point x="82" y="700" type="line"/>
      <point x="137" y="700" type="line"/>
      <point x="137" y="0" type="line"/>
      <point x="82" y="0" type="line"/>
    </contour>
    <contour>
      <point x="-31" y="922" type="line"/>
      <point x="18" y="949" type="line"/>
      <point x="176" y="789" type="line"/>
      <point x="146" y="769" type="line"/>
    </contour>
  </outline>
</glyph>
<glyph name="Iacute" format="1">
  <advance width="219"/>
  <unicode hex="00CD"/>
  <outline>
    <contour>
      <point x="82" y="700" type="line"/>
      <point x="137" y="700" type="line"/>
      <point x="137" y="0" type="line"/>
      <point x="82" y="0" type="line"/>
    </contour>
    <contour>
      <point x="250" y="922" type="line"/>
      <point x="72" y="769" type="line"/>
      <point x="44" y="789" type="line"/>
      <point x="202" y="949" type="line"/>
    </contour>
  </outline>
</glyph>
<glyph name="Icircumflex" format="1">
  <advance width="219"/>
  <unicode hex="00CE"/>
  <outline>
    <contour>
      <point x="82" y="700" type="line"/>
      <point x="137" y="700" type="line"/>
      <point x="137" y="0" type="line"/>
      <point x="82" y="0" type="line"/>
    </contour>
    <contour>
      <point x="109" y="880" type="line"/>
      <point x="-18" y="769" type="line"/>
      <point x="-51" y="796" type="line"/>
      <point x="109" y="936" type="line"/>
      <point x="269" y="796" type="line"/>
      <point x="236" y="769" type="line"/>
    </contour>
  </outline>
</glyph>
<glyph name="Ntilde" format="1">
  <advance width="731"/>
  <unicode hex="00D1"/>
  <outline>
    <contour>
      <point x="75" y="634" type="line"/>
      <point x="68" y="727" type="line"/>
      <point x="648" y="64" type="line"/>
      <point x="655" y="-27" type="line"/>
    </contour>
    <contour>
      <point x="600" y="700" type="line"/>
      <point x="655" y="700" type="line"/>
      <point x="655" y="-27" type="line"/>
      <point x="600" y="52" type="line"/>
    </contour>
    <contour>
      <point x="68" y="727" type="line"/>
      <point x="123" y="646" type="line"/>
      <point x="123" y="0" type="line"/>
      <point x="68" y="0" type="line"/>
    </contour>
    <contour>
      <point x="221" y="786" type="line"/>
      <point x="227" y="827"/>
      <point x="263" y="858"/>
      <point x="308" y="858" type="curve" smooth="yes"/>
      <point x="369" y="858"/>
      <point x="378" y="811"/>
      <point x="432" y="811" type="curve" smooth="yes"/>
      <point x="455" y="811"/>
      <point x="470" y="827"/>
      <point x="488" y="859" type="curve"/>
      <point x="519" y="832" type="line"/>
      <point x="503" y="795"/>
      <point x="471" y="767"/>
      <point x="429" y="767" type="curve" smooth="yes"/>
      <point x="374" y="767"/>
      <point x="353" y="814"/>
      <point x="308" y="814" type="curve" smooth="yes"/>
      <point x="267" y="814"/>
      <point x="256" y="782"/>
      <point x="256" y="763" type="curve"/>
    </contour>
  </outline>
</glyph>
<glyph name="Oacute" format="1">
  <advance width="783"/>
  <unicode hex="00D3"/>
  <outline>
    <contour>
      <point x="102" y="350" type="curve" smooth="yes"/>
      <point x="102" y="175"/>
      <point x="224" y="46"/>
      <point x="392" y="46" type="curve" smooth="yes"/>
      <point x="560" y="46"/>
      <point x="681" y="175"/>
      <point x="681" y="350" type="curve" smooth="yes"/>
      <point x="681" y="525"/>
      <point x="560" y="654"/>
      <point x="392" y="654" type="curve" smooth="yes"/>
      <point x="224" y="654"/>
      <point x="102" y="525"/>
    </contour>
    <contour>
      <point x="44" y="350" type="curve" smooth="yes"/>
      <point x="44" y="556"/>
      <point x="192" y="709"/>
      <point x="392" y="709" type="curve" smooth="yes"/>
      <point x="592" y="709"/>
      <point x="740" y="556"/>
      <point x="740" y="350" type="curve" smooth="yes"/>
      <point x="740" y="144"/>
      <point x="592" y="-9"/>
      <point x="392" y="-9" type="curve" smooth="yes"/>
      <point x="192" y="-9"/>
      <point x="44" y="144"/>
    </contour>
    <contour>
      <point x="518" y="922" type="line"/>
      <point x="341" y="769" type="line"/>
      <point x="312" y="789" type="line"/>
      <point x="470" y="949" type="line"/>
    </contour>
  </outline>
</glyph>
<glyph name="Oslash" format="1">
  <advance width="790"/>
  <unicode hex="00D8"/>
  <outline>
    <contour>
      <point x="102" y="350" type="curve" smooth="yes"/>
      <point x="102" y="175"/>
      <point x="224" y="46"/>
      <point x="392" y="46" type="curve" smooth="yes"/>
      <point x="560" y="46"/>
      <point x="681" y="175"/>
      <point x="681" y="350" type="curve" smooth="yes"/>
      <point x="681" y="525"/>
      <point x="560" y="654"/>
      <point x="392" y="654" type="curve" smooth="yes"/>
      <point x="224" y="654"/>
      <point x="102" y="525"/>
    </contour>
    <contour>
      <point x="44" y="350" type="curve" smooth="yes"/>
      <point x="44" y="556"/>
      <point x="192" y="709"/>
      <point x="392" y="709" type="curve" smooth="yes"/>
      <point x="592" y="709"/>
      <point x="740" y="556"/>
      <point x="740" y="350" type="curve" smooth="yes"/>
      <point x="740" y="144"/>
      <point x="592" y="-9"/>
      <point x="392" y="-9" type="curve" smooth="yes"/>
      <point x="192" y="-9"/>
      <point x="44" y="144"/>
    </contour>
    <contour>
      <point x="698" y="743" type="line"/>
      <point x="737" y="717" type="line"/>
      <point x="88" y="-43" type="line"/>
      <point x="50" y="-17" type="line"/>
    </contour>
  </outline>
</glyph>
<glyph name="Ucircumflex" format="1">
  <advance width="606"/>
  <unicode hex="00DB"/>
  <outline>
    <contour>
      <point x="79" y="700" type="line"/>
      <point x="134" y="700" type="line"/>
      <point x="134" y="226" type="line" smooth="yes"/>
      <point x="134" y="114"/>
      <point x="195" y="42"/>
      <point x="303" y="42" type="curve" smooth="yes"/>
      <point x="411" y="42"/>
      <point x="472" y="114"/>
      <point x="472" y="226" type="curve" smooth="yes"/>
      <point x="472" y="700" type="line"/>
      <point x="527" y="700" type="line"/>
      <point x="527" y="226" type="line" smooth="yes"/>
      <point x="527" y="87"/>
      <point x="444" y="-10"/>
      <point x="303" y="-10" type="curve" smooth="yes"/>
      <point x="162" y="-10"/>
      <point x="79" y="87"/>
      <point x="79" y="226" type="curve" smooth="yes"/>
    </contour>
    <contour>
      <point x="303" y="880" type="line"/>
      <point x="176" y="769" type="line"/>
      <point x="143" y="796" type="line"/>
      <point x="303" y="936" type="line"/>
      <point x="463" y="796" type="line"/>
      <point x="430" y="769" type="line"/>
    </contour>
  </outline>
</glyph>
<glyph name="Udieresis" format="1">
  <advance width="606"/>
  <unicode hex="00DC"/>
  <outline>
    <contour>
      <point x="79" y="700" type="line"/>
      <point x="134" y="700" type="line"/>
      <point x="134" y="226" type="line" smooth="yes"/>
      <point x="134" y="114"/>
      <point x="195" y="42"/>
      <point x="303" y="42" type="curve" smooth="yes"/>
      <point x="411" y="42"/>
      <point x="472" y="114"/>
      <point x="472" y="226" type="curve" smooth="yes"/>
      <point x="472" y="700" type="line"/>
      <point x="527" y="700" type="line"/>
      <point x="527" y="226" type="line" smooth="yes"/>
      <point x="527" y="87"/>
      <point x="444" y="-10"/>
      <point x="303" y="-10" type="curve" smooth="yes"/>
      <point x="162" y="-10"/>
      <point x="79" y="87"/>
      <point x="79" y="226" type="curve" smooth="yes"/>
    </contour>
    <contour>
      <point x="362" y="807" type="curve" smooth="yes"/>
      <point x="362" y="828"/>
      <point x="379" y="844"/>
      <point x="399" y="844" type="curve" smooth="yes"/>
      <point x="419" y="844"/>
      <point x="436" y="828"/>
      <point x="436" y="807" type="curve" smooth="yes"/>
      <point x="436" y="786"/>
      <point x="419" y="769"/>
      <point x="399" y="769" type="curve" smooth="yes"/>
      <point x="379" y="769"/>
      <point x="362" y="786"/>
    </contour>
    <contour>
      <point x="170" y="807" type="curve" smooth="yes"/>
      <point x="170" y="828"/>
      <point x="187" y="844"/>
      <point x="207" y="844" type="curve" smooth="yes"/>
      <point x="227" y="844"/>
      <point x="244" y="828"/>
      <point x="244" y="807" type="curve" smooth="yes"/>
      <point x="244" y="786"/>
      <point x="227" y="769"/>
      <point x="207" y="769" type="curve" smooth="yes"/>
      <point x="187" y="769"/>
      <point x="170" y="786"/>
    </contour>
  </outline>
</glyph>
<glyph name="germandbls" format="1">
  <advance width="554"/>
  <unicode hex="00DF"/>
  <outline>
    <contour>
      <point x="80" y="606" type="line"/>
      <point x="132" y="606" type="line"/>
      <point x="132" y="0" type="line"/>
      <point x="80" y="0" type="line"/>
    </contour>
    <contour>
      <point x="244" y="433" type="curve"/>
      <point x="244" y="469" type="line"/>
      <point x="354" y="469"/>
      <point x="416" y="520"/>
      <point x="416" y="600" type="curve" smooth="yes"/>
      <point x="416" y="678"/>
      <point x="375" y="741"/>
      <point x="269" y="741" type="curve" smooth="yes"/>
      <point x="193" y="741"/>
      <point x="132" y="690"/>
      <point x="132" y="606" type="curve"/>
      <point x="80" y="606" type="line"/>
      <point x="80" y="715"/>
      <point x="164" y="790"/>
      <point x="269" y="790" type="curve" smooth="yes"/>
      <point x="404" y="790"/>
      <point x="469" y="715"/>
      <point x="469" y="606" type="curve" smooth="yes"/>
      <point x="469" y="495"/>
      <point x="399" y="433"/>
    </contour>
    <contour>
      <point x="264" y="39" type="line"/>
      <point x="364" y="39"/>
      <point x="456" y="115"/>
      <point x="456" y="231" type="curve" smooth="yes"/>
      <point x="456" y="344"/>
      <point x="354" y="420"/>
      <point x="244" y="420" type="curve"/>
      <point x="244" y="456" type="line"/>
      <point x="399" y="456"/>
      <point x="509" y="360"/>
      <point x="509" y="225" type="curve" smooth="yes"/>
      <point x="509" y="86"/>
      <point x="399" y="-10"/>
      <point x="264" y="-10" type="curve"/>
    </contour>
  </outline>
</glyph>
<glyph name="atilde" format="1">
  <advance width="465"/>
  <unicode hex="00E3"/>
  <outline>
    <contour>
      <point x="87" y="135" type="curve" smooth="yes"/>
      <point x="87" y="66"/>
      <point x="136" y="37"/>
      <point x="202" y="37" type="curve" smooth="yes"/>
      <point x="286" y="37"/>
      <point x="349" y="86"/>
      <point x="349" y="172" type="curve"/>
      <point x="361" y="142" type="line"/>
      <point x="361" y="53"/>
      <point x="288" y="-10"/>
      <point x="190" y="-10" type="curve" smooth="yes"/>
      <point x="103" y="-10"/>
      <point x="34" y="37"/>
      <point x="34" y="129" type="curve" smooth="yes"/>
      <point x="34" y="232"/>
      <point x="121" y="284"/>
      <point x="224" y="284" type="curve" smooth="yes"/>
      <point x="308" y="284"/>
      <point x="353" y="246"/>
      <point x="370" y="229" type="curve"/>
      <point x="370" y="197" type="line"/>
      <point x="333" y="225"/>
      <point x="288" y="243"/>
      <point x="226" y="243" type="curve" smooth="yes"/>
      <point x="144" y="243"/>
      <point x="87" y="205"/>
    </contour>
    <contour>
      <point x="100" y="369" type="curve"/>
      <point x="74" y="409" type="line"/>
      <point x="108" y="436"/>
      <point x="163" y="470"/>
      <point x="242" y="470" type="curve" smooth="yes"/>
      <point x="341" y="470"/>
      <point x="401" y="415"/>
      <point x="401" y="326" type="curve" smooth="yes"/>
      <point x="401" y="0" type="line"/>
      <point x="349" y="0" type="line"/>
      <point x="349" y="326" type="line" smooth="yes"/>
      <point x="349" y="388"/>
      <point x="305" y="424"/>
      <point x="242" y="424" type="curve" smooth="yes"/>
      <point x="176" y="424"/>
      <point x="128" y="393"/>
    </contour>
    <contour>
      <point x="89" y="573" type="line"/>
      <point x="95" y="614"/>
      <point x="131" y="645"/>
      <point x="176" y="645" type="curve" smooth="yes"/>
      <point x="237" y="645"/>
      <point x="246" y="598"/>
      <point x="300" y="598" type="curve" smooth="yes"/>
      <point x="323" y="598"/>
      <point x="338" y="614"/>
      <point x="356" y="646" type="curve"/>
      <point x="387" y="619" type="line"/>
      <point x="371" y="582"/>
      <point x="339" y="554"/>
      <point x="297" y="554" type="curve" smooth="yes"/>
      <point x="242" y="554"/>
      <point x="221" y="601"/>
      <point x="176" y="601" type="curve" smooth="yes"/>
      <point x="135" y="601"/>
      <point x="124" y="569"/>
      <point x="124" y="550" type="curve"/>
    </contour>
  </outline>
</glyph>
<glyph name="egrave" format="1">
  <advance width="517"/>
  <unicode hex="00E8"/>
  <outline>
    <contour>
      <point x="78" y="217" type="line"/>
      <point x="78" y="262" type="line"/>
      <point x="464" y="262" type="line"/>
      <point x="477" y="217" type="line"/>
    </contour>
    <contour>
      <point x="423" y="251" type="line" smooth="yes"/>
      <point x="423" y="350"/>
      <point x="360" y="424"/>
      <point x="264" y="424" type="curve" smooth="yes"/>
      <point x="173" y="424"/>
      <point x="93" y="358"/>
      <point x="93" y="249" type="curve"/>
      <point x="92" y="231" type="line"/>
      <point x="92" y="115"/>
      <point x="160" y="39"/>
      <point x="262" y="39" type="curve" smooth="yes"/>
      <point x="349" y="39"/>
      <point x="398" y="84"/>
      <point x="429" y="134" type="curve"/>
      <point x="471" y="107" type="line"/>
      <point x="431" y="46"/>
      <point x="377" y="-10"/>
      <point x="256" y="-10" type="curve" smooth="yes"/>
      <point x="131" y="-10"/>
      <point x="39" y="92"/>
      <point x="39" y="231" type="curve" smooth="yes"/>
      <point x="39" y="252"/>
      <point x="40" y="272"/>
      <point x="45" y="291" type="curve" smooth="yes"/>
      <point x="67" y="397"/>
      <point x="151" y="470"/>
      <point x="264" y="470" type="curve" smooth="yes"/>
      <point x="386" y="470"/>
      <point x="479" y="379"/>
      <point x="479" y="242" type="curve" smooth="yes"/>
      <point x="479" y="234"/>
      <point x="478" y="225"/>
      <point x="477" y="217" type="curve"/>
      <point x="423" y="230" type="line"/>
    </contour>
    <contour>
      <point x="114" y="695" type="line"/>
      <point x="162" y="722" type="line"/>
      <point x="320" y="562" type="line"/>
      <point x="291" y="542" type="line"/>
    </contour>
  </outline>
</glyph>
<glyph name="icircumflex" format="1">
  <advance width="232"/>
  <unicode hex="00EE"/>
  <outline>
    <contour>
      <point x="90" y="460" type="line"/>
      <point x="142" y="460" type="line"/>
      <point x="142" y="0" type="line"/>
      <point x="90" y="0" type="line"/>
    </contour>
    <contour>
      <point x="116" y="647" type="line"/>
      <point x="-11" y="536" type="line"/>
      <point x="-44" y="563" type="line"/>
      <point x="116" y="703" type="line"/>
      <point x="276" y="563" type="line"/>
      <point x="243" y="536" type="line"/>
    </contour>
  </outline>
</glyph>
<glyph name="idieresis" format="1">
  <advance width="232"/>
  <unicode hex="00EF"/>
  <outline>
    <contour>
      <point x="90" y="460" type="line"/>
      <point x="142" y="460" type="line"/>
      <point x="142" y="0" type="line"/>
      <point x="90" y="0" type="line"/>
    </contour>
    <contour>
      <point x="171" y="585" type="curve" smooth="yes"/>
      <point x="171" y="606"/>
      <point x="188" y="623"/>
      <point x="208" y="623" type="curve" smooth="yes"/>
      <point x="228" y="623"/>
      <point x="245" y="606"/>
      <point x="245" y="585" type="curve" smooth="yes"/>
      <point x="245" y="564"/>
      <point x="228" y="548"/>
      <point x="208" y="548" type="curve" smooth="yes"/>
      <point x="188" y="548"/>
      <point x="171" y="564"/>
    </contour>
    <contour>
      <point x="-13" y="585" type="curve" smooth="yes"/>
      <point x="-13" y="606"/>
      <point x="4" y="623"/>
      <point x="24" y="623" type="curve" smooth="yes"/>
      <point x="44" y="623"/>
      <point x="61" y="606"/>
      <point x="61" y="585" type="curve" smooth="yes"/>
      <point x="61" y="564"/>
      <point x="44" y="548"/>
      <point x="24" y="548" type="curve" smooth="yes"/>
      <point x="4" y="548"/>
      <point x="-13" y="564"/>
    </contour>
  </outline>
</glyph>
<glyph name="eth" format="1">
  <advance width="560"/>
  <unicode hex="00F0"/>
  <outline>
    <contour>
      <point x="457" y="226" type="curve" smooth="yes"/>
      <point x="457" y="326"/>
      <point x="386" y="408"/>
      <point x="276" y="408" type="curve" smooth="yes"/>
      <point x="180" y="408"/>
      <point x="103" y="330"/>
      <point x="103" y="226" type="curve" smooth="yes"/>
      <point x="103" y="118"/>
      <point x="176" y="40"/>
      <point x="280" y="40" type="curve" smooth="yes"/>
      <point x="386" y="40"/>
      <point x="457" y="121"/>
    </contour>
    <contour>
      <point x="230" y="700" type="line"/>
      <point x="461" y="377" type="line" smooth="yes"/>
      <point x="488" y="340"/>
      <point x="510" y="283"/>
      <point x="510" y="226" type="curve" smooth="yes"/>
      <point x="510" y="86"/>
      <point x="415" y="-10"/>
      <point x="280" y="-10" type="curve" smooth="yes"/>
      <point x="145" y="-10"/>
      <point x="50" y="86"/>
      <point x="50" y="226" type="curve" smooth="yes"/>
      <point x="50" y="351"/>
      <point x="143" y="449"/>
      <point x="257" y="449" type="curve" smooth="yes"/>
      <point x="314" y="449"/>
      <point x="360" y="433"/>
      <point x="393" y="392" type="curve"/>
      <point x="389" y="389" type="line"/>
      <point x="161" y="700" type="line"/>
    </contour>
    <contour>
      <point x="151" y="542" type="line"/>
      <point x="151" y="585" type="line"/>
      <point x="439" y="585" type="line"/>
      <point x="439" y="542" type="line"/>
    </contour>
  </outline>
</glyph>
<glyph name="ograve" format="1">
  <advance width="550"/>
  <unicode hex="00F2"/>
  <outline>
    <contour>
      <point x="39" y="230" type="curve" smooth="yes"/>
      <point x="39" y="369"/>
      <point x="141" y="470"/>
      <point x="275" y="470" type="curve" smooth="yes"/>
      <point x="409" y="470"/>
      <point x="511" y="369"/>
      <point x="511" y="230" type="curve" smooth="yes"/>
      <point x="511" y="91"/>
      <point x="409" y="-10"/>
      <point x="275" y="-10" type="curve" smooth="yes"/>
      <point x="141" y="-10"/>
      <point x="39" y="91"/>
    </contour>
    <contour>
      <point x="92" y="230" type="curve" smooth="yes"/>
      <point x="92" y="119"/>
      <point x="171" y="39"/>
      <point x="275" y="39" type="curve" smooth="yes"/>
      <point x="379" y="39"/>
      <point x="458" y="119"/>
      <point x="458" y="230" type="curve" smooth="yes"/>
      <point x="458" y="341"/>
      <point x="379" y="421"/>
      <point x="275" y="421" type="curve" smooth="yes"/>
      <point x="171" y="421"/>
      <point x="92" y="341"/>
    </contour>
    <contour>
      <point x="125" y="695" type="line"/>
      <point x="173" y="722" type="line"/>
      <point x="331" y="562" type="line"/>
      <point x="302" y="542" type="line"/>
    </contour>
  </outline>
</glyph>
<glyph name="odieresis" format="1">
  <advance width="550"/>
  <unicode hex="00F6"/>
  <outline>
    <contour>
      <point x="39" y="230" type="curve" smooth="yes"/>
      <point x="39" y="369"/>
      <point x="141" y="470"/>
      <point x="275" y="470" type="curve" smooth="yes"/>
      <point x="409" y="470"/>
      <point x="511" y="369"/>
      <point x="511" y="230" type="curve" smooth="yes"/>
      <point x="511" y="91"/>
      <point x="409" y="-10"/>
      <point x="275" y="-10" type="curve" smooth="yes"/>
      <point x="141" y="-10"/>
      <point x="39" y="91"/>
    </contour>
    <contour>
      <point x="92" y="230" type="curve" smooth="yes"/>
      <point x="92" y="119"/>
      <point x="171" y="39"/>
      <point x="275" y="39" type="curve" smooth="yes"/>
      <point x="379" y="39"/>
      <point x="458" y="119"/>
      <point x="458" y="230" type="curve" smooth="yes"/>
      <point x="458" y="341"/>
      <point x="379" y="421"/>
      <point x="275" y="421" type="curve" smooth="yes"/>
      <point x="171" y="421"/>
      <point x="92" y="341"/>
    </contour>
    <contour>
      <point x="338" y="593" type="curve" smooth="yes"/>
      <point x="338" y="614"/>
      <point x="355" y="631"/>
      <point x="375" y="631" type="curve" smooth="yes"/>
      <point x="395" y="631"/>
      <point x="412" y="614"/>
      <point x="412" y="593" type="curve" smooth="yes"/>
      <point x="412" y="572"/>
      <point x="395" y="556"/>
      <point x="375" y="556" type="curve" smooth="yes"/>
      <point x="355" y="556"/>
      <point x="338" y="572"/>
    </contour>
    <contour>
      <point x="138" y="593" type="curve" smooth="yes"/>
      <point x="138" y="614"/>
      <point x="155" y="631"/>
      <point x="175" y="631" type="curve" smooth="yes"/>
      <point x="195" y="631"/>
      <point x="212" y="614"/>
      <point x="212" y="593" type="curve" smooth="yes"/>
      <point x="212" y="572"/>
      <point x="195" y="556"/>
      <point x="175" y="556" type="curve" smooth="yes"/>
      <point x="155" y="556"/>
      <point x="138" y="572"/>
    </contour>
  </outline>
</glyph>
<glyph name="divide" format="1">
  <advance width="623"/>
  <unicode hex="00F7"/>
  <outline>
    <contour>
      <point x="273" y="450" type="curve" smooth="yes"/>
      <point x="273" y="471"/>
      <point x="290" y="488"/>
      <point x="310" y="488" type="curve" smooth="yes"/>
      <point x="330" y="488"/>
      <point x="347" y="471"/>
      <point x="347" y="450" type="curve" smooth="yes"/>
      <point x="347" y="429"/>
      <point x="330" y="413"/>
      <point x="310" y="413" type="curve" smooth="yes"/>
      <point x="290" y="413"/>
      <point x="273" y="429"/>
    </contour>
    <contour>
      <point x="273" y="54" type="curve" smooth="yes"/>
      <point x="273" y="75"/>
      <point x="290" y="92"/>
      <point x="310" y="92" type="curve" smooth="yes"/>
      <point x="330" y="92"/>
      <point x="347" y="75"/>
      <point x="347" y="54" type="curve" smooth="yes"/>
      <point x="347" y="33"/>
      <point x="330" y="17"/>
      <point x="310" y="17" type="curve" smooth="yes"/>
      <point x="290" y="17"/>
      <point x="273" y="33"/>
    </contour>
    <contour>
      <point x="60" y="229" type="line"/>
      <point x="60" y="281" type="line"/>
      <point x="560" y="281" type="line"/>
      <point x="560" y="229" type="line"/>
    </contour>
  </outline>
</glyph>
<glyph name="ydieresis" format="1">
  <advance width="434"/>
  <unicode hex="00FF"/>
  <outline>
    <contour>
      <point x="430" y="460" type="line"/>
      <point x="130" y="-220" type="line"/>
      <point x="72" y="-220" type="line"/>
      <point x="190" y="47" type="line"/>
      <point x="4" y="460" type="line"/>
      <point x="66" y="460" type="line"/>
      <point x="233" y="68" type="line"/>
      <point x="209" y="70" type="line"/>
      <point x="372" y="460" type="line"/>
    </contour>
    <contour>
      <point x="272" y="575" type="curve" smooth="yes"/>
      <point x="272" y="596"/>
      <point x="289" y="613"/>
      <point x="309" y="613" type="curve" smooth="yes"/>
      <point x="329" y="613"/>
      <point x="346" y="596"/>
      <point x="346" y="575" type="curve" smooth="yes"/>
      <point x="346" y="554"/>
      <point x="329" y="538"/>
      <point x="309" y="538" type="curve" smooth="yes"/>
      <point x="289" y="538"/>
      <point x="272" y="554"/>
    </contour>
    <contour>
      <point x="88" y="575" type="curve" smooth="yes"/>
      <point x="88" y="596"/>
      <point x="105" y="613"/>
      <point x="125" y="613" type="curve" smooth="yes"/>
      <point x="145" y="613"/>
      <point x="162" y="596"/>
      <point x="162" y="575" type="curve" smooth="yes"/>
      <point x="162" y="554"/>
      <point x="145" y="538"/>
      <point x="125" y="538" type="curve" smooth="yes"/>
      <point x="105" y="538"/>
      <point x="88" y="554"/>
    </contour>
  </outline>
</glyph>
<glyph name="Aogonek" format="1">
  <advance width="636"/>
  <unicode hex="0104"/>
  <outline>
    <contour>
      <point x="139" y="235" type="line"/>
      <point x="157" y="287" type="line"/>
      <point x="481" y="287" type="line"/>
      <point x="499" y="235" type="line"/>
    </contour>
    <contour>
      <point x="318" y="600" type="line"/>
      <point x="182" y="269" type="line"/>
      <point x="176" y="257" type="line"/>
      <point x="71" y="0" type="line"/>
      <point x="9" y="0" type="line"/>
      <point x="318" y="727" type="line"/>
      <point x="627" y="0" type="line"/>
      <point x="565" y="0" type="line"/>
      <point x="461" y="253" type="line"/>
      <point x="456" y="266" type="line"/>
    </contour>
    <contour>
      <point x="638" y="-147" type="curve"/>
      <point x="660" y="-180" type="line"/>
      <point x="645" y="-200"/>
      <point x="611" y="-220"/>
      <point x="568" y="-220" type="curve" smooth="yes"/>
      <point x="492" y="-220"/>
      <point x="453" y="-183"/>
      <point x="453" y="-128" type="curve"/>
      <point x="505" y="-116" type="line"/>
      <point x="505" y="-156"/>
      <point x="533" y="-174"/>
      <point x="571" y="-174" type="curve" smooth="yes"/>
      <point x="603" y="-174"/>
      <point x="624" y="-162"/>
    </contour>
    <contour>
      <point x="505" y="-116" type="curve"/>
      <point x="453" y="-128" type="line"/>
      <point x="453" y="-65"/>
      <point x="524" y="-17"/>
      <point x="594" y="19" type="curve"/>
      <point x="621" y="0" type="line"/>
      <point x="563" y="-26"/>
      <point x="505" y="-71"/>
    </contour>
  </outline>
</glyph>
<glyph name="Edotaccent" format="1">
  <advance width="534"/>
  <unicode hex="0116"/>
  <outline>
    <contour>
      <point x="113" y="0" type="line"/>
      <point x="113" y="52" type="line"/>
      <point x="460" y="52" type="line"/>
      <point x="460" y="0" type="line"/>
    </contour>
    <contour>
      <point x="113" y="648" type="line"/>
      <point x="113" y="700" type="line"/>
      <point x="460" y="700" type="line"/>
      <point x="460" y="648" type="line"/>
    </contour>
    <contour>
      <point x="113" y="358" type="line"/>
      <point x="113" y="410" type="line"/>
      <point x="440" y="410" type="line"/>
      <point x="440" y="358" type="line"/>
    </contour>
    <contour>
      <point x="84" y="700" type="line"/>
      <point x="139" y="700" type="line"/>
      <point x="139" y="0" type="line"/>
      <point x="84" y="0" type="line"/>
    </contour>
    <contour>
      <point x="235" y="807" type="curve" smooth="yes"/>
      <point x="235" y="828"/>
      <point x="252" y="844"/>
      <point x="272" y="844" type="curve" smooth="yes"/>
      <point x="292" y="844"/>
      <point x="309" y="828"/>
      <point x="309" y="807" type="curve" smooth="yes"/>
      <point x="309" y="786"/>
      <point x="292" y="769"/>
      <point x="272" y="769" type="curve" smooth="yes"/>
      <point x="252" y="769"/>
      <point x="235" y="786"/>
    </contour>
  </outline>
</glyph>
<glyph name="eogonek" format="1">
  <advance width="517"/>
  <unicode hex="0119"/>
  <outline>
    <contour>
      <point x="78" y="217" type="line"/>
      <point x="78" y="262" type="line"/>
      <point x="464" y="262" type="line"/>
      <point x="477" y="217" type="line"/>
    </contour>
    <contour>
      <point x="423" y="251" type="line" smooth="yes"/>
      <point x="423" y="350"/>
      <point x="360" y="424"/>
      <point x="264" y="424" type="curve" smooth="yes"/>
      <point x="173" y="424"/>
      <point x="93" y="358"/>
      <point x="93" y="249" type="curve"/>
      <point x="92" y="231" type="line"/>
      <point x="92" y="115"/>
      <point x="160" y="39"/>
      <point x="262" y="39" type="curve" smooth="yes"/>
      <point x="349" y="39"/>
      <point x="398" y="84"/>
      <point x="429" y="134" type="curve"/>
      <point x="471" y="107" type="line"/>
      <point x="431" y="46"/>
      <point x="377" y="-10"/>
      <point x="256" y="-10" type="curve" smooth="yes"/>
      <point x="131" y="-10"/>
      <point x="39" y="92"/>
      <point x="39" y="231" type="curve" smooth="yes"/>
      <point x="39" y="252"/>
      <point x="40" y="272"/>
      <point x="45" y="291" type="curve" smooth="yes"/>
      <point x="67" y="397"/>
      <point x="151" y="470"/>
      <point x="264" y="470" type="curve" smooth="yes"/>
      <point x="386" y="470"/>
      <point x="479" y="379"/>
      <point x="479" y="242" type="curve" smooth="yes"/>
      <point x="479" y="234"/>
      <point x="478" y="225"/>
      <point x="477" y="217" type="curve"/>
      <point x="423" y="230" type="line"/>
    </contour>
    <contour>
      <point x="299" y="-153" type="curve"/>
      <point x="321" y="-185" type="line"/>
      <point x="306" y="-205"/>
      <point x="272" y="-225"/>
      <point x="229" y="-225" type="curve" smooth="yes"/>
      <point x="153" y="-225"/>
      <point x="114" y="-188"/>
      <point x="114" y="-133" type="curve"/>
      <point x="166" y="-121" type="line"/>
      <point x="166" y="-161"/>
      <point x="194" y="-179"/>
      <point x="232" y="-179" type="curve" smooth="yes"/>
      <point x="264" y="-179"/>
      <point x="285" y="-168"/>
    </contour>
    <contour>
      <point x="166" y="-121" type="curve"/>
      <point x="114" y="-133" type="line"/>
      <point x="114" y="-70"/>
      <point x="184" y="-23"/>
      <point x="254" y="13" type="curve"/>
      <point x="282" y="-6" type="line"/>
      <point x="224" y="-32"/>
      <point x="166" y="-76"/>
    </contour>
  </outline>
</glyph>
<glyph name="Gbreve" format="1">
  <advance width="771"/>
  <unicode hex="011E"/>
  <outline>
    <contour>
      <point x="411" y="297" type="line"/>
      <point x="411" y="349" type="line"/>
      <point x="722" y="349" type="line"/>
      <point x="685" y="297" type="line"/>
    </contour>
    <contour>
      <point x="722" y="349" type="line"/>
      <point x="722" y="159"/>
      <point x="599" y="-9"/>
      <point x="393" y="-9" type="curve" smooth="yes"/>
      <point x="193" y="-9"/>
      <point x="44" y="141"/>
      <point x="44" y="350" type="curve" smooth="yes"/>
      <point x="44" y="559"/>
      <point x="193" y="709"/>
      <point x="393" y="709" type="curve" smooth="yes"/>
      <point x="522" y="709"/>
      <point x="619" y="652"/>
      <point x="679" y="559" type="curve"/>
      <point x="639" y="524" type="line"/>
      <point x="593" y="602"/>
      <point x="506" y="654"/>
      <point x="393" y="654" type="curve" smooth="yes"/>
      <point x="228" y="654"/>
      <point x="102" y="529"/>
      <point x="102" y="350" type="curve" smooth="yes"/>
      <point x="102" y="172"/>
      <point x="227" y="46"/>
      <point x="393" y="46" type="curve" smooth="yes"/>
      <point x="569" y="46"/>
      <point x="667" y="189"/>
      <point x="667" y="343" type="curve"/>
    </contour>
    <contour>
      <point x="235" y="917" type="curve"/>
      <point x="282" y="917" type="line"/>
      <point x="282" y="875"/>
      <point x="314" y="820"/>
      <point x="393" y="820" type="curve" smooth="yes"/>
      <point x="472" y="820"/>
      <point x="504" y="875"/>
      <point x="504" y="917" type="curve"/>
      <point x="551" y="917" type="line"/>
      <point x="551" y="848"/>
      <point x="498" y="777"/>
      <point x="393" y="777" type="curve" smooth="yes"/>
      <point x="288" y="777"/>
      <point x="235" y="848"/>
    </contour>
  </outline>
</glyph>
<glyph name="gbreve" format="1">
  <advance width="558"/>
  <unicode hex="011F"/>
  <outline>
    <contour>
      <point x="456" y="230" type="curve"/>
      <point x="432" y="230" type="line"/>
      <point x="432" y="344"/>
      <point x="349" y="421"/>
      <point x="271" y="421" type="curve" smooth="yes"/>
      <point x="168" y="421"/>
      <point x="92" y="348"/>
      <point x="92" y="230" type="curve"/>
      <point x="39" y="230" type="line"/>
      <point x="39" y="379"/>
      <point x="138" y="470"/>
      <point x="263" y="470" type="curve" smooth="yes"/>
      <point x="370" y="470"/>
      <point x="456" y="379"/>
    </contour>
    <contour>
      <point x="432" y="230" type="curve"/>
      <point x="456" y="230" type="line"/>
      <point x="456" y="81"/>
      <point x="370" y="-10"/>
      <point x="263" y="-10" type="curve" smooth="yes"/>
      <point x="138" y="-10"/>
      <point x="39" y="81"/>
      <point x="39" y="230" type="curve"/>
      <point x="92" y="230" type="line"/>
      <point x="92" y="112"/>
      <point x="168" y="39"/>
      <point x="271" y="39" type="curve" smooth="yes"/>
      <point x="349" y="39"/>
      <point x="432" y="116"/>
    </contour>
    <contour>
      <point x="50" y="-30" type="curve"/>
      <point x="103" y="-30" type="line"/>
      <point x="103" y="-116"/>
      <point x="167" y="-181"/>
      <point x="264" y="-181" type="curve" smooth="yes"/>
      <point x="349" y="-181"/>
      <point x="432" y="-122"/>
      <point x="432" y="10" type="curve" smooth="yes"/>
      <point x="432" y="460" type="line"/>
      <point x="484" y="460" type="line"/>
      <point x="484" y="10" type="line" smooth="yes"/>
      <point x="484" y="-149"/>
      <point x="379" y="-230"/>
      <point x="264" y="-230" type="curve" smooth="yes"/>
      <point x="137" y="-230"/>
      <point x="50" y="-149"/>
    </contour>
    <contour>
      <point x="103" y="678" type="curve"/>
      <point x="150" y="678" type="line"/>
      <point x="150" y="636"/>
      <point x="182" y="581"/>
      <point x="261" y="581" type="curve" smooth="yes"/>
      <point x="340" y="581"/>
      <point x="372" y="636"/>
      <point x="372" y="678" type="curve"/>
      <point x="419" y="678" type="line"/>
      <point x="419" y="609"/>
      <point x="366" y="538"/>
      <point x="261" y="538" type="curve" smooth="yes"/>
      <point x="156" y="538"/>
      <point x="103" y="609"/>
    </contour>
  </outline>
</glyph>
<glyph name="gdotaccent" format="1">
  <advance width="558"/>
  <unicode hex="0121"/>
  <outline>
    <contour>
      <point x="456" y="230" type="curve"/>
      <point x="432" y="230" type="line"/>
      <point x="432" y="344"/>
      <point x="349" y="421"/>
      <point x="271" y="421" type="curve" smooth="yes"/>
      <point x="168" y="421"/>
      <point x="92" y="348"/>
      <point x="92" y="230" type="curve"/>
      <point x="39" y="230" type="line"/>
      <point x="39" y="379"/>
      <point x="138" y="470"/>
      <point x="263" y="470" type="curve" smooth="yes"/>
      <point x="370" y="470"/>
      <point x="456" y="379"/>
    </contour>
    <contour>
      <point x="432" y="230" type="curve"/>
      <point x="456" y="230" type="line"/>
      <point x="456" y="81"/>
      <point x="370" y="-10"/>
      <point x="263" y="-10" type="curve" smooth="yes"/>
      <point x="138" y="-10"/>
      <point x="39" y="81"/>
      <point x="39" y="230" type="curve"/>
      <point x="92" y="230" type="line"/>
      <point x="92" y="112"/>
      <point x="168" y="39"/>
      <point x="271" y="39" type="curve" smooth="yes"/>
      <point x="349" y="39"/>
      <point x="432" y="116"/>
    </contour>
    <contour>
      <point x="50" y="-30" type="curve"/>
      <point x="103" y="-30" type="line"/>
      <point x="103" y="-116"/>
      <point x="167" y="-181"/>
      <point x="264" y="-181" type="curve" smooth="yes"/>
      <point x="349" y="-181"/>
      <point x="432" y="-122"/>
      <point x="432" y="10" type="curve" smooth="yes"/>
      <point x="432" y="460" type="line"/>
      <point x="484" y="460" type="line"/>
      <point x="484" y="10" type="line" smooth="yes"/>
      <point x="484" y="-149"/>
      <point x="379" y="-230"/>
      <point x="264" y="-230" type="curve" smooth="yes"/>
      <point x="137" y="-230"/>
      <point x="50" y="-149"/>
    </contour>
    <contour>
      <point x="224" y="567" type="curve" smooth="yes"/>
      <point x="224" y="588"/>
      <point x="241" y="605"/>
      <point x="261" y="605" type="curve" smooth="yes"/>
      <point x="281" y="605"/>
      <point x="298" y="588"/>
      <point x="298" y="567" type="curve" smooth="yes"/>
      <point x="298" y="546"/>
      <point x="281" y="530"/>
      <point x="261" y="530" type="curve" smooth="yes"/>
      <point x="241" y="530"/>
      <point x="224" y="546"/>
    </contour>
  </outline>
</glyph>
<glyph name="uni0122" format="1">
  <advance width="771"/>
  <unicode hex="0122"/>
  <outline>
    <contour>
      <point x="411" y="297" type="line"/>
      <point x="411" y="349" type="line"/>
      <point x="722" y="349" type="line"/>
      <point x="685" y="297" type="line"/>
    </contour>
    <contour>
      <point x="722" y="349" type="line"/>
      <point x="722" y="159"/>
      <point x="599" y="-9"/>
      <point x="393" y="-9" type="curve" smooth="yes"/>
      <point x="193" y="-9"/>
      <point x="44" y="141"/>
      <point x="44" y="350" type="curve" smooth="yes"/>
      <point x="44" y="559"/>
      <point x="193" y="709"/>
      <point x="393" y="709" type="curve" smooth="yes"/>
      <point x="522" y="709"/>
      <point x="619" y="652"/>
      <point x="679" y="559" type="curve"/>
      <point x="639" y="524" type="line"/>
      <point x="593" y="602"/>
      <point x="506" y="654"/>
      <point x="393" y="654" type="curve" smooth="yes"/>
      <point x="228" y="654"/>
      <point x="102" y="529"/>
      <point x="102" y="350" type="curve" smooth="yes"/>
      <point x="102" y="172"/>
      <point x="227" y="46"/>
      <point x="393" y="46" type="curve" smooth="yes"/>
      <point x="569" y="46"/>
      <point x="667" y="189"/>
      <point x="667" y="343" type="curve"/>
    </contour>
    <contour>
      <point x="414" y="-69" type="line"/>
      <point x="467" y="-89" type="line"/>
      <point x="357" y="-339" type="line"/>
      <point x="319" y="-326" type="line"/>
    </contour>
  </outline>
</glyph>
<glyph name="hcircumflex" format="1">
  <advance width="505"/>
  <unicode hex="0125"/>
  <outline>
    <contour>
      <point x="131" y="780" type="line"/>
      <point x="131" y="0" type="line"/>
      <point x="79" y="0" type="line"/>
      <point x="79" y="780" type="line"/>
    </contour>
    <contour>
      <point x="374" y="296" type="line" smooth="yes"/>
      <point x="374" y="374"/>
      <point x="341" y="421"/>
      <point x="266" y="421" type="curve" smooth="yes"/>
      <point x="188" y="421"/>
      <point x="131" y="358"/>
      <point x="131" y="280" type="curve"/>
      <point x="107" y="280" type="line"/>
      <point x="107" y="389"/>
      <point x="183" y="470"/>
      <point x="278" y="470" type="curve" smooth="yes"/>
      <point x="373" y="470"/>
      <point x="426" y="409"/>
      <point x="426" y="302" type="curve" smooth="yes"/>
      <point x="426" y="0" type="line"/>
      <point x="374" y="0" type="line"/>
    </contour>
    <contour>
      <point x="112" y="951" type="line"/>
      <point x="-15" y="840" type="line"/>
      <point x="-48" y="867" type="line"/>
      <point x="112" y="1007" type="line"/>
      <point x="272" y="867" type="line"/>
      <point x="239" y="840" type="line"/>
    </contour>
  </outline>
</glyph>
<glyph name="Itilde" format="1">
  <advance width="219"/>
  <unicode hex="0128"/>
  <outline>
    <contour>
      <point x="82" y="700" type="line"/>
      <point x="137" y="700" type="line"/>
      <point x="137" y="0" type="line"/>
      <point x="82" y="0" type="line"/>
    </contour>
    <contour>
      <point x="-35" y="817" type="line"/>
      <point x="-29" y="858"/>
      <point x="7" y="889"/>
      <point x="52" y="889" type="curve" smooth="yes"/>
      <point x="113" y="889"/>
      <point x="122" y="842"/>
      <point x="176" y="842" type="curve" smooth="yes"/>
      <point x="199" y="842"/>
      <point x="214" y="858"/>
      <point x="232" y="890" type="curve"/>
      <point x="263" y="863" type="line"/>
      <point x="247" y="826"/>
      <point x="215" y="798"/>
      <point x="173" y="798" type="curve" smooth="yes"/>
      <point x="118" y="798"/>
      <point x="97" y="845"/>
      <point x="52" y="845" type="curve" smooth="yes"/>
      <point x="11" y="845"/>
      <point x="0" y="813"/>
      <point x="0" y="794" type="curve"/>
    </contour>
  </outline>
</glyph>
<glyph name="Imacron" format="1">
  <advance width="219"/>
  <unicode hex="012A"/>
  <outline>
    <contour>
      <point x="82" y="700" type="line"/>
      <point x="137" y="700" type="line"/>
      <point x="137" y="0" type="line"/>
      <point x="82" y="0" type="line"/>
    </contour>
    <contour>
      <point x="-52" y="796" type="line"/>
      <point x="-52" y="845" type="line"/>
      <point x="298" y="845" type="line"/>
      <point x="298" y="796" type="line"/>
    </contour>
  </outline>
</glyph>
<glyph name="Iogonek" format="1">
  <advance width="219"/>
  <unicode hex="012E"/>
  <outline>
    <contour>
      <point x="82" y="700" type="line"/>
      <point x="137" y="700" type="line"/>
      <point x="137" y="0" type="line"/>
      <point x="82" y="0" type="line"/>
    </contour>
    <contour>
      <point x="153" y="-157" type="curve"/>
      <point x="176" y="-190" type="line"/>
      <point x="161" y="-210"/>
      <point x="127" y="-230"/>
      <point x="84" y="-230" type="curve" smooth="yes"/>
      <point x="8" y="-230"/>
      <point x="-31" y="-193"/>
      <point x="-31" y="-138" type="curve"/>
      <point x="21" y="-126" type="line"/>
      <point x="21" y="-166"/>
      <point x="49" y="-184"/>
      <point x="87" y="-184" type="curve" smooth="yes"/>
      <point x="119" y="-184"/>
      <point x="139" y="-172"/>
    </contour>
    <contour>
      <point x="21" y="-126" type="curve"/>
      <point x="-31" y="-138" type="line"/>
      <point x="-31" y="-75"/>
      <point x="39" y="-27"/>
      <point x="109" y="9" type="curve"/>
      <point x="136" y="-10" type="line"/>
      <point x="78" y="-36"/>
      <point x="21" y="-81"/>
    </contour>
  </outline>
</glyph>
<glyph name="jcircumflex" format="1">
  <advance width="222"/>
  <unicode hex="0135"/>
  <outline>
    <contour>
      <point x="-49" y="-134" type="line"/>
      <point x="-34" y="-156"/>
      <point x="-12" y="-168"/>
      <point x="12" y="-168" type="curve" smooth="yes"/>
      <point x="62" y="-168"/>
      <point x="80" y="-125"/>
      <point x="80" y="-63" type="curve" smooth="yes"/>
      <point x="80" y="460" type="line"/>
      <point x="132" y="460" type="line"/>
      <point x="132" y="-69" type="line" smooth="yes"/>
      <point x="132" y="-162"/>
      <point x="93" y="-220"/>
      <point x="9" y="-220" type="curve" smooth="yes"/>
      <point x="-34" y="-220"/>
      <point x="-63" y="-197"/>
      <point x="-78" y="-177" type="curve"/>
    </contour>
    <contour>
      <point x="120" y="654" type="line"/>
      <point x="-7" y="543" type="line"/>
      <point x="-40" y="570" type="line"/>
      <point x="120" y="710" type="line"/>
      <point x="280" y="570" type="line"/>
      <point x="247" y="543" type="line"/>
    </contour>
  </outline>
</glyph>
<glyph name="uni0137" format="1">
  <advance width="412"/>
  <unicode hex="0137"/>
  <outline>
    <contour>
      <point x="74" y="780" type="line"/>
      <point x="126" y="780" type="line"/>
      <point x="126" y="0" type="line"/>
      <point x="74" y="0" type="line"/>
    </contour>
    <contour>
      <point x="323" y="460" type="line"/>
      <point x="390" y="460" type="line"/>
      <point x="173" y="270" type="line"/>
      <point x="409" y="0" type="line"/>
      <point x="343" y="0" type="line"/>
      <point x="107" y="270" type="line"/>
    </contour>
    <contour>
      <point x="270" y="-66" type="line"/>
      <point x="322" y="-86" type="line"/>
      <point x="212" y="-336" type="line"/>
      <point x="175" y="-323" type="line"/>
    </contour>
  </outline>
</glyph>
<glyph name="uni013B" format="1">
  <advance width="442"/>
  <unicode hex="013B"/>
  <outline>
    <contour>
      <point x="115" y="0" type="line"/>
      <point x="115" y="52" type="line"/>
      <point x="428" y="52" type="line"/>
      <point x="428" y="0" type="line"/>
    </contour>
    <contour>
      <point x="84" y="700" type="line"/>
      <point x="139" y="700" type="line"/>
      <point x="139" y="0" type="line"/>
      <point x="84" y="0" type="line"/>
    </contour>
    <contour>
      <point x="269" y="-60" type="line"/>
      <point x="322" y="-80" type="line"/>
      <point x="212" y="-330" type="line"/>
      <point x="174" y="-317" type="line"/>
    </contour>
  </outline>
</glyph>
<glyph name="uni013C" format="1">
  <advance width="210"/>
  <unicode hex="013C"/>
  <outline>
    <contour>
      <point x="79" y="780" type="line"/>
      <point x="131" y="780" type="line"/>
      <point x="131" y="0" type="line"/>
      <point x="79" y="0" type="line"/>
    </contour>
    <contour>
      <point x="118" y="-60" type="line"/>
      <point x="171" y="-80" type="line"/>
      <point x="61" y="-330" type="line"/>
      <point x="23" y="-317" type="line"/>
    </contour>
  </outline>
</glyph>
<glyph name="Lcaron" format="1">
  <advance width="450"/>
  <unicode hex="013D"/>
  <outline>
    <contour>
      <point x="115" y="0" type="line"/>
      <point x="115" y="52" type="line"/>
      <point x="428" y="52" type="line"/>
      <point x="428" y="0" type="line"/>
    </contour>
    <contour>
      <point x="84" y="700" type="line"/>
      <point x="139" y="700" type="line"/>
      <point x="139" y="0" type="line"/>
      <point x="84" y="0" type="line"/>
    </contour>
    <contour>
      <point x="329" y="704" type="line"/>
      <point x="381" y="684" type="line"/>
      <point x="271" y="434" type="line"/>
      <point x="234" y="447" type="line"/>
    </contour>
  </outline>
</glyph>
<glyph name="ldot" format="1">
  <advance width="370"/>
  <unicode hex="0140"/>
  <outline>
    <contour>
      <point x="79" y="780" type="line"/>
      <point x="131" y="780" type="line"/>
      <point x="131" y="0" type="line"/>
      <point x="79" y="0" type="line"/>
    </contour>
    <contour>
      <point x="221" y="407" type="curve" smooth="yes"/>
      <point x="221" y="428"/>
      <point x="238" y="445"/>
      <point x="258" y="445" type="curve" smooth="yes"/>
      <point x="278" y="445"/>
      <point x="296" y="428"/>
      <point x="296" y="407" type="curve" smooth="yes"/>
      <point x="296" y="386"/>
      <point x="278" y="370"/>
      <point x="258" y="370" type="curve" smooth="yes"/>
      <point x="238" y="370"/>
      <point x="221" y="386"/>
    </contour>
  </outline>
</glyph>
<glyph name="Lslash" format="1">
  <advance width="420"/>
  <unicode hex="0141"/>
  <outline>
    <contour>
      <point x="-1" y="359" type="line"/>
      <point x="-15" y="395" type="line"/>
      <point x="255" y="565" type="line"/>
      <point x="269" y="529" type="line"/>
    </contour>
    <contour>
      <point x="110" y="0" type="line"/>
      <point x="110" y="52" type="line"/>
      <point x="410" y="52" type="line"/>
      <point x="410" y="0" type="line"/>
    </contour>
    <contour>
      <point x="80" y="700" type="line"/>
      <point x="135" y="700" type="line"/>
      <point x="135" y="0" type="line"/>
      <point x="80" y="0" type="line"/>
    </contour>
  </outline>
</glyph>
<glyph name="uni0146" format="1">
  <advance width="505"/>
  <unicode hex="0146"/>
  <outline>
    <contour>
      <point x="131" y="460" type="line"/>
      <point x="131" y="0" type="line"/>
      <point x="79" y="0" type="line"/>
      <point x="79" y="460" type="line"/>
    </contour>
    <contour>
      <point x="374" y="296" type="line" smooth="yes"/>
      <point x="374" y="374"/>
      <point x="341" y="421"/>
      <point x="266" y="421" type="curve" smooth="yes"/>
      <point x="188" y="421"/>
      <point x="131" y="358"/>
      <point x="131" y="280" type="curve"/>
      <point x="107" y="280" type="line"/>
      <point x="107" y="389"/>
      <point x="183" y="470"/>
      <point x="278" y="470" type="curve" smooth="yes"/>
      <point x="373" y="470"/>
      <point x="426" y="409"/>
      <point x="426" y="302" type="curve" smooth="yes"/>
      <point x="426" y="0" type="line"/>
      <point x="374" y="0" type="line"/>
    </contour>
    <contour>
      <point x="261" y="-52" type="line"/>
      <point x="314" y="-72" type="line"/>
      <point x="204" y="-322" type="line"/>
      <point x="167" y="-309" type="line"/>
    </contour>
  </outline>
</glyph>
<glyph name="Ncaron" format="1">
  <advance width="731"/>
  <unicode hex="0147"/>
  <outline>
    <contour>
      <point x="75" y="634" type="line"/>
      <point x="68" y="727" type="line"/>
      <point x="648" y="64" type="line"/>
      <point x="655" y="-27" type="line"/>
    </contour>
    <contour>
      <point x="600" y="700" type="line"/>
      <point x="655" y="700" type="line"/>
      <point x="655" y="-27" type="line"/>
      <point x="600" y="52" type="line"/>
    </contour>
    <contour>
      <point x="68" y="727" type="line"/>
      <point x="123" y="646" type="line"/>
      <point x="123" y="0" type="line"/>
      <point x="68" y="0" type="line"/>
    </contour>
    <contour>
      <point x="376" y="839" type="line"/>
      <point x="503" y="950" type="line"/>
      <point x="536" y="923" type="line"/>
      <point x="376" y="783" type="line"/>
      <point x="216" y="923" type="line"/>
      <point x="249" y="950" type="line"/>
    </contour>
  </outline>
</glyph>
<glyph name="obreve" format="1">
  <advance width="550"/>
  <unicode hex="014F"/>
  <outline>
    <contour>
      <point x="39" y="230" type="curve" smooth="yes"/>
      <point x="39" y="369"/>
      <point x="141" y="470"/>
      <point x="275" y="470" type="curve" smooth="yes"/>
      <point x="409" y="470"/>
      <point x="511" y="369"/>
      <point x="511" y="230" type="curve" smooth="yes"/>
      <point x="511" y="91"/>
      <point x="409" y="-10"/>
      <point x="275" y="-10" type="curve" smooth="yes"/>
      <point x="141" y="-10"/>
      <point x="39" y="91"/>
    </contour>
    <contour>
      <point x="92" y="230" type="curve" smooth="yes"/>
      <point x="92" y="119"/>
      <point x="171" y="39"/>
      <point x="275" y="39" type="curve" smooth="yes"/>
      <point x="379" y="39"/>
      <point x="458" y="119"/>
      <point x="458" y="230" type="curve" smooth="yes"/>
      <point x="458" y="341"/>
      <point x="379" y="421"/>
      <point x="275" y="421" type="curve" smooth="yes"/>
      <point x="171" y="421"/>
      <point x="92" y="341"/>
    </contour>
    <contour>
      <point x="117" y="670" type="curve"/>
      <point x="164" y="670" type="line"/>
      <point x="164" y="628"/>
      <point x="196" y="573"/>
      <point x="275" y="573" type="curve" smooth="yes"/>
      <point x="354" y="573"/>
      <point x="386" y="628"/>
      <point x="386" y="670" type="curve"/>
      <point x="433" y="670" type="line"/>
      <point x="433" y="601"/>
      <point x="380" y="530"/>
      <point x="275" y="530" type="curve" smooth="yes"/>
      <point x="170" y="530"/>
      <point x="117" y="601"/>
    </contour>
  </outline>
</glyph>
<glyph name="oe" format="1">
  <advance width="910"/>
  <unicode hex="0153"/>
  <outline>
    <contour>
      <point x="816" y="250" type="line" smooth="yes"/>
      <point x="816" y="344"/>
      <point x="758" y="424"/>
      <point x="656" y="424" type="curve" smooth="yes"/>
      <point x="556" y="424"/>
      <point x="485" y="347"/>
      <point x="485" y="249" type="curve"/>
      <point x="484" y="231" type="line"/>
      <point x="484" y="113"/>
      <point x="554" y="39"/>
      <point x="656" y="39" type="curve" smooth="yes"/>
      <point x="734" y="39"/>
      <point x="787" y="78"/>
      <point x="821" y="134" type="curve"/>
      <point x="863" y="107" type="line"/>
      <point x="817" y="37"/>
      <point x="755" y="-10"/>
      <point x="656" y="-10" type="curve" smooth="yes"/>
      <point x="527" y="-10"/>
      <point x="439" y="95"/>
      <point x="439" y="230" type="curve" smooth="yes"/>
      <point x="439" y="247"/>
      <point x="440" y="263"/>
      <point x="443" y="279" type="curve" smooth="yes"/>
      <point x="462" y="392"/>
      <point x="547" y="470"/>
      <point x="662" y="470" type="curve" smooth="yes"/>
      <point x="772" y="470"/>
      <point x="871" y="379"/>
      <point x="871" y="242" type="curve" smooth="yes"/>
      <point x="871" y="234"/>
      <point x="871" y="225"/>
      <point x="870" y="217" type="curve"/>
      <point x="816" y="230" type="line"/>
    </contour>
    <contour>
      <point x="471" y="217" type="line"/>
      <point x="471" y="262" type="line"/>
      <point x="858" y="262" type="line"/>
      <point x="870" y="217" type="line"/>
    </contour>
    <contour>
      <point x="39" y="230" type="curve" smooth="yes"/>
      <point x="39" y="379"/>
      <point x="138" y="470"/>
      <point x="259" y="470" type="curve" smooth="yes"/>
      <point x="376" y="470"/>
      <point x="463" y="379"/>
      <point x="463" y="230" type="curve" smooth="yes"/>
      <point x="463" y="81"/>
      <point x="376" y="-10"/>
      <point x="259" y="-10" type="curve" smooth="yes"/>
      <point x="138" y="-10"/>
      <point x="39" y="81"/>
    </contour>
    <contour>
      <point x="92" y="230" type="curve" smooth="yes"/>
      <point x="92" y="110"/>
      <point x="169" y="39"/>
      <point x="266" y="39" type="curve" smooth="yes"/>
      <point x="348" y="39"/>
      <point x="426" y="112"/>
      <point x="426" y="230" type="curve" smooth="yes"/>
      <point x="426" y="348"/>
      <point x="348" y="421"/>
      <point x="266" y="421" type="curve" smooth="yes"/>
      <point x="169" y="421"/>
      <point x="92" y="350"/>
    </contour>
  </outline>
</glyph>
<glyph name="uni0156" format="1">
  <advance width="523"/>
  <unicode hex="0156"/>
  <outline>
    <contour>
      <point x="203" y="334" type="line"/>
      <point x="264" y="334" type="line"/>
      <point x="503" y="0" type="line"/>
      <point x="435" y="0" type="line"/>
    </contour>
    <contour>
      <point x="84" y="700" type="line"/>
      <point x="139" y="700" type="line"/>
      <point x="139" y="0" type="line"/>
      <point x="84" y="0" type="line"/>
    </contour>
    <contour>
      <point x="113" y="651" type="line"/>
      <point x="113" y="700" type="line"/>
      <point x="244" y="700" type="line" smooth="yes"/>
      <point x="379" y="700"/>
      <point x="481" y="626"/>
      <point x="481" y="497" type="curve" smooth="yes"/>
      <point x="481" y="368"/>
      <point x="379" y="294"/>
      <point x="244" y="294" type="curve" smooth="yes"/>
      <point x="113" y="294" type="line"/>
      <point x="113" y="343" type="line"/>
      <point x="244" y="343" type="line" smooth="yes"/>
      <point x="351" y="343"/>
      <point x="426" y="396"/>
      <point x="426" y="497" type="curve" smooth="yes"/>
      <point x="426" y="598"/>
      <point x="350" y="651"/>
      <point x="244" y="651" type="curve" smooth="yes"/>
    </contour>
    <contour>
      <point x="295" y="-60" type="line"/>
      <point x="347" y="-80" type="line"/>
      <point x="237" y="-330" type="line"/>
      <point x="200" y="-317" type="line"/>
    </contour>
  </outline>
</glyph>
<glyph name="uni0157" format="1">
  <advance width="321"/>
  <unicode hex="0157"/>
  <outline>
    <contour>
      <point x="131" y="460" type="line"/>
      <point x="131" y="0" type="line"/>
      <point x="79" y="0" type="line"/>
      <point x="79" y="460" type="line"/>
    </contour>
    <contour>
      <point x="284" y="399" type="line"/>
      <point x="264" y="413"/>
      <point x="248" y="421"/>
      <point x="224" y="421" type="curve" smooth="yes"/>
      <point x="156" y="421"/>
      <point x="131" y="358"/>
      <point x="131" y="280" type="curve"/>
      <point x="107" y="280" type="line"/>
      <point x="107" y="389"/>
      <point x="163" y="470"/>
      <point x="236" y="470" type="curve" smooth="yes"/>
      <point x="265" y="470"/>
      <point x="292" y="462"/>
      <point x="313" y="442" type="curve"/>
    </contour>
    <contour>
      <point x="110" y="-60" type="line"/>
      <point x="163" y="-80" type="line"/>
      <point x="53" y="-330" type="line"/>
      <point x="15" y="-317" type="line"/>
    </contour>
  </outline>
</glyph>
<glyph name="Sacute" format="1">
  <advance width="524"/>
  <unicode hex="015A"/>
  <outline>
    <contour>
      <point x="87" y="214" type="line"/>
      <point x="123" y="121"/>
      <point x="178" y="43"/>
      <point x="279" y="43" type="curve" smooth="yes"/>
      <point x="379" y="43"/>
      <point x="422" y="99"/>
      <point x="422" y="180" type="curve" smooth="yes"/>
      <point x="422" y="275"/>
      <point x="335" y="317"/>
      <point x="257" y="346" type="curve" smooth="yes"/>
      <point x="183" y="373"/>
      <point x="77" y="426"/>
      <point x="77" y="541" type="curve" smooth="yes"/>
      <point x="77" y="643"/>
      <point x="162" y="709"/>
      <point x="268" y="709" type="curve" smooth="yes"/>
      <point x="381" y="709"/>
      <point x="448" y="627"/>
      <point x="472" y="556" type="curve"/>
      <point x="427" y="528" type="line"/>
      <point x="401" y="590"/>
      <point x="358" y="656"/>
      <point x="269" y="656" type="curve" smooth="yes"/>
      <point x="191" y="656"/>
      <point x="135" y="608"/>
      <point x="135" y="537" type="curve" smooth="yes"/>
      <point x="135" y="456"/>
      <point x="220" y="417"/>
      <point x="305" y="385" type="curve" smooth="yes"/>
      <point x="382" y="357"/>
      <point x="479" y="303"/>
      <point x="479" y="184" type="curve" smooth="yes"/>
      <point x="479" y="73"/>
      <point x="415" y="-9"/>
      <point x="276" y="-9" type="curve" smooth="yes"/>
      <point x="157" y="-9"/>
      <point x="78" y="79"/>
      <point x="40" y="187" type="curve"/>
    </contour>
    <contour>
      <point x="438" y="922" type="line"/>
      <point x="261" y="769" type="line"/>
      <point x="232" y="789" type="line"/>
      <point x="390" y="949" type="line"/>
    </contour>
  </outline>
</glyph>
<glyph name="Ydieresis" format="1">
  <advance width="539"/>
  <unicode hex="0178"/>
  <outline>
    <contour>
      <point x="240" y="326" type="line"/>
      <point x="295" y="326" type="line"/>
      <point x="295" y="0" type="line"/>
      <point x="240" y="0" type="line"/>
    </contour>
    <contour>
      <point x="468" y="700" type="line"/>
      <point x="530" y="700" type="line"/>
      <point x="267" y="240" type="line"/>
      <point x="9" y="700" type="line"/>
      <point x="71" y="700" type="line"/>
      <point x="267" y="338" type="line"/>
    </contour>
    <contour>
      <point x="328" y="807" type="curve" smooth="yes"/>
      <point x="328" y="828"/>
      <point x="346" y="844"/>
      <point x="366" y="844" type="curve" smooth="yes"/>
      <point x="386" y="844"/>
      <point x="404" y="828"/>
      <point x="404" y="807" type="curve" smooth="yes"/>
      <point x="404" y="786"/>
      <point x="386" y="769"/>
      <point x="366" y="769" type="curve" smooth="yes"/>
      <point x="346" y="769"/>
      <point x="328" y="786"/>
    </contour>
    <contour>
      <point x="136" y="807" type="curve" smooth="yes"/>
      <point x="136" y="828"/>
      <point x="154" y="844"/>
      <point x="174" y="844" type="curve" smooth="yes"/>
      <point x="194" y="844"/>
      <point x="212" y="828"/>
      <point x="212" y="807" type="curve" smooth="yes"/>
      <point x="212" y="786"/>
      <point x="194" y="769"/>
      <point x="174" y="769" type="curve" smooth="yes"/>
      <point x="154" y="769"/>
      <point x="136" y="786"/>
    </contour>
  </outline>
</glyph>
<glyph name="Zacute" format="1">
  <advance width="541"/>
  <unicode hex="0179"/>
  <outline>
    <contour>
      <point x="37" y="648" type="line"/>
      <point x="37" y="700" type="line"/>
      <point x="523" y="700" type="line"/>
      <point x="108" y="52" type="line"/>
      <point x="507" y="52" type="line"/>
      <point x="507" y="0" type="line"/>
      <point x="17" y="0" type="line"/>
      <point x="432" y="648" type="line"/>
    </contour>
    <contour>
      <point x="437" y="932" type="line"/>
      <point x="260" y="779" type="line"/>
      <point x="231" y="799" type="line"/>
      <point x="389" y="959" type="line"/>
    </contour>
  </outline>
</glyph>
<glyph name="zacute" format="1">
  <advance width="448"/>
  <unicode hex="017A"/>
  <outline>
    <contour>
      <point x="332" y="411" type="line"/>
      <point x="43" y="411" type="line"/>
      <point x="43" y="460" type="line"/>
      <point x="427" y="460" type="line"/>
      <point x="112" y="49" type="line"/>
      <point x="419" y="49" type="line"/>
      <point x="419" y="0" type="line"/>
      <point x="17" y="0" type="line"/>
    </contour>
    <contour>
      <point x="392" y="683" type="line"/>
      <point x="215" y="530" type="line"/>
      <point x="186" y="550" type="line"/>
      <point x="344" y="710" type="line"/>
    </contour>
  </outline>
</glyph>
<glyph name="Zdotaccent" format="1">
  <advance width="541"/>
  <unicode hex="017B"/>
  <outline>
    <contour>
      <point x="37" y="648" type="line"/>
      <point x="37" y="700" type="line"/>
      <point x="523" y="700" type="line"/>
      <point x="108" y="52" type="line"/>
      <point x="507" y="52" type="line"/>
      <point x="507" y="0" type="line"/>
      <point x="17" y="0" type="line"/>
      <point x="432" y="648" type="line"/>
    </contour>
    <contour>
      <point x="242.5" y="806" type="curve" smooth="yes"/>
      <point x="242.5" y="827"/>
      <point x="259.5" y="844"/>
      <point x="279.5" y="844" type="curve" smooth="yes"/>
      <point x="299.5" y="844"/>
      <point x="317.5" y="827"/>
      <point x="317.5" y="806" type="curve" smooth="yes"/>
      <point x="317.5" y="785"/>
      <point x="299.5" y="769"/>
      <point x="279.5" y="769" type="curve" smooth="yes"/>
      <point x="259.5" y="769"/>
      <point x="242.5" y="785"/>
    </contour>
  </outline>
</glyph>
<glyph name="zdotaccent" format="1">
  <advance width="448"/>
  <unicode hex="017C"/>
  <outline>
    <contour>
      <point x="332" y="411" type="line"/>
      <point x="43" y="411" type="line"/>
      <point x="43" y="460" type="line"/>
      <point x="427" y="460" type="line"/>
      <point x="112" y="49" type="line"/>
      <point x="419" y="49" type="line"/>
      <point x="419" y="0" type="line"/>
      <point x="17" y="0" type="line"/>
    </contour>
    <contour>
      <point x="197.5" y="597" type="curve" smooth="yes"/>
      <point x="197.5" y="618"/>
      <point x="214.5" y="635"/>
      <point x="234.5" y="635" type="curve" smooth="yes"/>
      <point x="254.5" y="635"/>
      <point x="272.5" y="618"/>
      <point x="272.5" y="597" type="curve" smooth="yes"/>
      <point x="272.5" y="576"/>
      <point x="254.5" y="560"/>
      <point x="234.5" y="560" type="curve" smooth="yes"/>
      <point x="214.5" y="560"/>
      <point x="197.5" y="576"/>
    </contour>
  </outline>
</glyph>
<glyph name="uni1E9E" format="1">
  <advance width="696"/>
  <unicode hex="1E9E"/>
  <outline>
    <contour>
      <point x="80" y="398" type="line"/>
      <point x="135" y="398" type="line"/>
      <point x="135" y="0" type="line"/>
      <point x="80" y="0" type="line"/>
    </contour>
    <contour>
      <point x="393" y="352" type="curve"/>
      <point x="393" y="388" type="line"/>
      <point x="498" y="388"/>
      <point x="561" y="446"/>
      <point x="561" y="526" type="curve" smooth="yes"/>
      <point x="561" y="608"/>
      <point x="482" y="660"/>
      <point x="380" y="660" type="curve" smooth="yes"/>
      <point x="238" y="660"/>
      <point x="135" y="575"/>
      <point x="135" y="398" type="curve"/>
      <point x="80" y="398" type="line"/>
      <point x="80" y="607"/>
      <point x="204" y="710"/>
      <point x="379" y="710" type="curve" smooth="yes"/>
      <point x="507" y="710"/>
      <point x="617" y="648"/>
      <point x="617" y="534" type="curve" smooth="yes"/>
      <point x="617" y="425"/>
      <point x="528" y="352"/>
    </contour>
    <contour>
      <point x="427" y="-10" type="curve" smooth="yes"/>
      <point x="300" y="-10"/>
      <point x="212" y="76"/>
      <point x="212" y="185" type="curve"/>
      <point x="268" y="185" type="line"/>
      <point x="268" y="104"/>
      <point x="335" y="42"/>
      <point x="427" y="42" type="curve" smooth="yes"/>
      <point x="519" y="42"/>
      <point x="581" y="104"/>
      <point x="581" y="191" type="curve" smooth="yes"/>
      <point x="581" y="289"/>
      <point x="498" y="338"/>
      <point x="393" y="338" type="curve"/>
      <point x="393" y="374" type="line"/>
      <point x="528" y="374"/>
      <point x="637" y="316"/>
      <point x="637" y="185" type="curve" smooth="yes"/>
      <point x="637" y="70"/>
      <point x="548" y="-10"/>
    </contour>
  </outline>
</glyph>
<glyph name="quoteright" format="1">
  <advance width="263"/>
  <unicode hex="2019"/>
  <outline>
    <contour>
      <point x="135" y="700" type="line"/>
      <point x="197" y="700" type="line"/>
      <point x="99" y="470" type="line"/>
      <point x="62" y="470" type="line"/>
    </contour>
  </outline>
</glyph>
<glyph name="ellipsis" format="1">
  <advance width="864"/>
  <unicode hex="2026"/>
  <outline>
    <contour>
      <point x="105" y="24" type="curve" smooth="yes"/>
      <point x="105" y="45"/>
      <point x="122" y="62"/>
      <point x="142" y="62" type="curve" smooth="yes"/>
      <point x="162" y="62"/>
      <point x="180" y="45"/>
      <point x="180" y="24" type="curve" smooth="yes"/>
      <point x="180" y="3"/>
      <point x="162" y="-13"/>
      <point x="142" y="-13" type="curve" smooth="yes"/>
      <point x="122" y="-13"/>
      <point x="105" y="3"/>
    </contour>
    <contour>
      <point x="395" y="24" type="curve" smooth="yes"/>
      <point x="395" y="45"/>
      <point x="412" y="62"/>
      <point x="432" y="62" type="curve" smooth="yes"/>
      <point x="452" y="62"/>
      <point x="470" y="45"/>
      <point x="470" y="24" type="curve" smooth="yes"/>
      <point x="470" y="3"/>
      <point x="452" y="-13"/>
      <point x="432" y="-13" type="curve" smooth="yes"/>
      <point x="412" y="-13"/>
      <point x="395" y="3"/>
    </contour>
    <contour>
      <point x="685" y="24" type="curve" smooth="yes"/>
      <point x="685" y="45"/>
      <point x="702" y="62"/>
      <point x="722" y="62" type="curve" smooth="yes"/>
      <point x="742" y="62"/>
      <point x="760" y="45"/>
      <point x="760" y="24" type="curve" smooth="yes"/>
      <point x="760" y="3"/>
      <point x="742" y="-13"/>
      <point x="722" y="-13" type="curve" smooth="yes"/>
      <point x="702" y="-13"/>
      <point x="685" y="3"/>
    </contour>
  </outline>
</glyph>
<glyph name="uni203D" format="1">
  <advance width="557"/>
  <unicode hex="203D"/>
  <outline>
    <contour>
      <point x="430" y="508" type="curve" smooth="yes"/>
      <point x="430" y="600"/>
      <point x="369" y="661"/>
      <point x="267" y="661" type="curve" smooth="yes"/>
      <point x="190" y="661"/>
      <point x="141" y="624"/>
      <point x="105" y="566" type="curve"/>
      <point x="62" y="593" type="line"/>
      <point x="108" y="663"/>
      <point x="162" y="710"/>
      <point x="273" y="710" type="curve" smooth="yes"/>
      <point x="398" y="710"/>
      <point x="483" y="623"/>
      <point x="483" y="508" type="curve" smooth="yes"/>
      <point x="483" y="397"/>
      <point x="381" y="309"/>
      <point x="268" y="309" type="curve"/>
      <point x="235" y="345" type="line"/>
      <point x="351" y="345"/>
      <point x="430" y="424"/>
    </contour>
    <contour>
      <point x="220" y="510" type="line"/>
      <point x="284" y="510" type="line"/>
      <point x="271" y="170" type="line"/>
      <point x="233" y="170" type="line"/>
    </contour>
    <contour>
      <point x="215" y="24" type="curve" smooth="yes"/>
      <point x="215" y="45"/>
      <point x="232" y="62"/>
      <point x="252" y="62" type="curve" smooth="yes"/>
      <point x="272" y="62"/>
      <point x="289" y="45"/>
      <point x="289" y="24" type="curve" smooth="yes"/>
      <point x="289" y="3"/>
      <point x="272" y="-13"/>
      <point x="252" y="-13" type="curve" smooth="yes"/>
      <point x="232" y="-13"/>
      <point x="215" y="3"/>
    </contour>
  </outline>
</glyph>
<glyph name="uni2075" format="1">
  <advance width="350"/>
  <unicode hex="2075"/>
  <outline>
    <contour>
      <point x="314" y="416" type="curve" smooth="yes"/>
      <point x="314" y="321"/>
      <point x="250" y="272"/>
      <point x="171" y="272" type="curve" smooth="yes"/>
      <point x="99" y="272"/>
      <point x="58" y="310"/>
      <point x="32" y="360" type="curve"/>
      <point x="60" y="379" type="line"/>
      <point x="80" y="336"/>
      <point x="118" y="303"/>
      <point x="171" y="303" type="curve" smooth="yes"/>
      <point x="236" y="303"/>
      <point x="279" y="345"/>
      <point x="279" y="416" type="curve" smooth="yes"/>
      <point x="279" y="480"/>
      <point x="236" y="523"/>
      <point x="178" y="523" type="curve" smooth="yes"/>
      <point x="133" y="523"/>
      <point x="102" y="509"/>
      <point x="64" y="474" type="curve"/>
      <point x="86" y="506" type="line"/>
      <point x="110" y="535"/>
      <point x="149" y="553"/>
      <point x="191" y="553" type="curve" smooth="yes"/>
      <point x="261" y="553"/>
      <point x="314" y="497"/>
    </contour>
    <contour>
      <point x="144" y="669" type="line"/>
      <point x="106" y="514" type="line"/>
      <point x="64" y="474" type="line"/>
      <point x="119" y="698" type="line"/>
      <point x="317" y="698" type="line"/>
      <point x="317" y="669" type="line"/>
    </contour>
  </outline>
</glyph>
<glyph name="uni2082" format="1">
  <advance width="340"/>
  <unicode hex="2082"/>
  <outline>
    <contour>
      <point x="27" y="2" type="line"/>
      <point x="223" y="210" type="line" smooth="yes"/>
      <point x="251" y="240"/>
      <point x="272" y="269"/>
      <point x="272" y="309" type="curve" smooth="yes"/>
      <point x="272" y="350"/>
      <point x="245" y="398"/>
      <point x="183" y="398" type="curve" smooth="yes"/>
      <point x="122" y="398"/>
      <point x="82" y="350"/>
      <point x="82" y="278" type="curve"/>
      <point x="49" y="278" type="line"/>
      <point x="49" y="367"/>
      <point x="101" y="429"/>
      <point x="183" y="429" type="curve" smooth="yes"/>
      <point x="270" y="429"/>
      <point x="305" y="361"/>
      <point x="305" y="307" type="curve" smooth="yes"/>
      <point x="305" y="262"/>
      <point x="281" y="224"/>
      <point x="249" y="191" type="curve" smooth="yes"/>
      <point x="96" y="33" type="line"/>
      <point x="313" y="33" type="line"/>
      <point x="313" y="2" type="line"/>
    </contour>
  </outline>
</glyph>
<glyph name="uni2084" format="1">
  <advance width="380"/>
  <unicode hex="2084"/>
  <outline>
    <contour>
      <point x="32" y="84" type="line"/>
      <point x="60" y="113" type="line"/>
      <point x="257" y="113" type="line" smooth="yes"/>
      <point x="264" y="113" type="line" smooth="yes"/>
      <point x="342" y="113" type="line"/>
      <point x="342" y="84" type="line"/>
    </contour>
    <contour>
      <point x="67" y="84" type="line"/>
      <point x="32" y="84" type="line"/>
      <point x="264" y="420" type="line"/>
      <point x="277" y="420" type="line"/>
      <point x="277" y="0" type="line"/>
      <point x="243" y="0" type="line"/>
      <point x="243" y="98" type="line" smooth="yes"/>
      <point x="243" y="102" type="line" smooth="yes"/>
      <point x="243" y="344" type="line"/>
    </contour>
  </outline>
</glyph>
<glyph name="uni2151" format="1">
  <advance width="784"/>
  <unicode hex="2151"/>
  <outline>
    <contour>
      <point x="589" y="700" type="line"/>
      <point x="633" y="700" type="line"/>
      <point x="92" y="0" type="line"/>
      <point x="48" y="0" type="line"/>
    </contour>
    <contour>
      <point x="26" y="633" type="line"/>
      <point x="26" y="668" type="line"/>
      <point x="156" y="699" type="line"/>
      <point x="156" y="274" type="line"/>
      <point x="123" y="274" type="line"/>
      <point x="123" y="659" type="line"/>
    </contour>
    <contour>
      <point x="720" y="286" type="curve" smooth="yes"/>
      <point x="720" y="351"/>
      <point x="675" y="398"/>
      <point x="613" y="398" type="curve" smooth="yes"/>
      <point x="551" y="398"/>
      <point x="507" y="351"/>
      <point x="507" y="286" type="curve" smooth="yes"/>
      <point x="507" y="223"/>
      <point x="553" y="177"/>
      <point x="611" y="177" type="curve" smooth="yes"/>
      <point x="677" y="177"/>
      <point x="720" y="226"/>
    </contour>
    <contour>
      <point x="584" y="2" type="line"/>
      <point x="542" y="2" type="line"/>
      <point x="679" y="189" type="line"/>
      <point x="681" y="187" type="line"/>
      <point x="661" y="163"/>
      <point x="634" y="153"/>
      <point x="600" y="153" type="curve" smooth="yes"/>
      <point x="532" y="153"/>
      <point x="475" y="211"/>
      <point x="475" y="286" type="curve" smooth="yes"/>
      <point x="475" y="370"/>
      <point x="532" y="428"/>
      <point x="613" y="428" type="curve" smooth="yes"/>
      <point x="694" y="428"/>
      <point x="752" y="370"/>
      <point x="752" y="286" type="curve" smooth="yes"/>
      <point x="752" y="252"/>
      <point x="738" y="218"/>
      <point x="722" y="196" type="curve" smooth="yes"/>
    </contour>
  </outline>
</glyph>
<glyph name="uni2152" format="1">
  <advance width="1080"/>
  <unicode hex="2152"/>
  <outline>
    <contour>
      <point x="589" y="700" type="line"/>
      <point x="633" y="700" type="line"/>
      <point x="92" y="0" type="line"/>
      <point x="48" y="0" type="line"/>
    </contour>
    <contour>
      <point x="26" y="633" type="line"/>
      <point x="26" y="668" type="line"/>
      <point x="156" y="699" type="line"/>
      <point x="156" y="274" type="line"/>
      <point x="123" y="274" type="line"/>
      <point x="123" y="659" type="line"/>
    </contour>
    <contour>
      <point x="466" y="360" type="line"/>
      <point x="466" y="395" type="line"/>
      <point x="596" y="426" type="line"/>
      <point x="596" y="1" type="line"/>
      <point x="563" y="1" type="line"/>
      <point x="563" y="386" type="line"/>
    </contour>
    <contour>
      <point x="773" y="210" type="curve" smooth="yes"/>
      <point x="773" y="106"/>
      <point x="815" y="25"/>
      <point x="886" y="25" type="curve" smooth="yes"/>
      <point x="957" y="25"/>
      <point x="999" y="106"/>
      <point x="999" y="210" type="curve" smooth="yes"/>
      <point x="999" y="314"/>
      <point x="957" y="395"/>
      <point x="886" y="395" type="curve" smooth="yes"/>
      <point x="815" y="395"/>
      <point x="773" y="314"/>
    </contour>
    <contour>
      <point x="740" y="210" type="curve" smooth="yes"/>
      <point x="740" y="333"/>
      <point x="798" y="426"/>
      <point x="886" y="426" type="curve" smooth="yes"/>
      <point x="974" y="426"/>
      <point x="1033" y="333"/>
      <point x="1033" y="210" type="curve" smooth="yes"/>
      <point x="1033" y="87"/>
      <point x="974" y="-6"/>
      <point x="886" y="-6" type="curve" smooth="yes"/>
      <point x="798" y="-6"/>
      <point x="740" y="87"/>
    </contour>
  </outline>
</glyph>
<glyph name="uni2157" format="1">
  <advance width="831"/>
  <unicode hex="2157"/>
  <outline>
    <contour>
      <point x="676" y="700" type="line"/>
      <point x="720" y="700" type="line"/>
      <point x="179" y="0" type="line"/>
      <point x="135" y="0" type="line"/>
    </contour>
    <contour>
      <point x="146" y="491" type="curve"/>
      <point x="146" y="513" type="line"/>
      <point x="200" y="513"/>
      <point x="247" y="547"/>
      <point x="247" y="596" type="curve" smooth="yes"/>
      <point x="247" y="640"/>
      <point x="219" y="676"/>
      <point x="167" y="676" type="curve" smooth="yes"/>
      <point x="118" y="676"/>
      <point x="82" y="643"/>
      <point x="82" y="596" type="curve"/>
      <point x="50" y="596" type="line"/>
      <point x="50" y="661"/>
      <point x="98" y="706"/>
      <point x="167" y="706" type="curve" smooth="yes"/>
      <point x="239" y="706"/>
      <point x="280" y="653"/>
      <point x="280" y="596" type="curve" smooth="yes"/>
      <point x="280" y="535"/>
      <point x="220" y="491"/>
    </contour>
    <contour>
      <point x="164" y="274" type="curve" smooth="yes"/>
      <point x="83" y="274"/>
      <point x="32" y="326"/>
      <point x="32" y="391" type="curve"/>
      <point x="66" y="391" type="line"/>
      <point x="66" y="341"/>
      <point x="104" y="305"/>
      <point x="164" y="305" type="curve" smooth="yes"/>
      <point x="222" y="305"/>
      <point x="259" y="340"/>
      <point x="259" y="392" type="curve" smooth="yes"/>
      <point x="259" y="453"/>
      <point x="200" y="483"/>
      <point x="146" y="483" type="curve"/>
      <point x="146" y="505" type="line"/>
      <point x="220" y="505"/>
      <point x="292" y="470"/>
      <point x="292" y="389" type="curve" smooth="yes"/>
      <point x="292" y="320"/>
      <point x="239" y="274"/>
    </contour>
    <contour>
      <point x="789" y="136" type="curve" smooth="yes"/>
      <point x="789" y="41"/>
      <point x="725" y="-8"/>
      <point x="646" y="-8" type="curve" smooth="yes"/>
      <point x="574" y="-8"/>
      <point x="533" y="30"/>
      <point x="507" y="80" type="curve"/>
      <point x="535" y="99" type="line"/>
      <point x="555" y="56"/>
      <point x="593" y="23"/>
      <point x="646" y="23" type="curve" smooth="yes"/>
      <point x="711" y="23"/>
      <point x="754" y="65"/>
      <point x="754" y="136" type="curve" smooth="yes"/>
      <point x="754" y="200"/>
      <point x="711" y="243"/>
      <point x="653" y="243" type="curve" smooth="yes"/>
      <point x="608" y="243"/>
      <point x="577" y="229"/>
      <point x="539" y="194" type="curve"/>
      <point x="561" y="226" type="line"/>
      <point x="585" y="255"/>
      <point x="624" y="273"/>
      <point x="666" y="273" type="curve" smooth="yes"/>
      <point x="736" y="273"/>
      <point x="789" y="217"/>
    </contour>
    <contour>
      <point x="619" y="389" type="line"/>
      <point x="581" y="234" type="line"/>
      <point x="539" y="194" type="line"/>
      <point x="594" y="418" type="line"/>
      <point x="792" y="418" type="line"/>
      <point x="792" y="389" type="line"/>
    </contour>
  </outline>
</glyph>
<glyph name="uni215A" format="1">
  <advance width="856"/>
  <unicode hex="215A"/>
  <outline>
    <contour>
      <point x="711" y="700" type="line"/>
      <point x="755" y="700" type="line"/>
      <point x="214" y="0" type="line"/>
      <point x="170" y="0" type="line"/>
    </contour>
    <contour>
      <point x="314" y="416" type="curve" smooth="yes"/>
      <point x="314" y="321"/>
      <point x="250" y="272"/>
      <point x="171" y="272" type="curve" smooth="yes"/>
      <point x="99" y="272"/>
      <point x="58" y="310"/>
      <point x="32" y="360" type="curve"/>
      <point x="60" y="379" type="line"/>
      <point x="80" y="336"/>
      <point x="118" y="303"/>
      <point x="171" y="303" type="curve" smooth="yes"/>
      <point x="236" y="303"/>
      <point x="279" y="345"/>
      <point x="279" y="416" type="curve" smooth="yes"/>
      <point x="279" y="480"/>
      <point x="236" y="523"/>
      <point x="178" y="523" type="curve" smooth="yes"/>
      <point x="133" y="523"/>
      <point x="102" y="509"/>
      <point x="64" y="474" type="curve"/>
      <point x="86" y="506" type="line"/>
      <point x="110" y="535"/>
      <point x="149" y="553"/>
      <point x="191" y="553" type="curve" smooth="yes"/>
      <point x="261" y="553"/>
      <point x="314" y="497"/>
    </contour>
    <contour>
      <point x="144" y="669" type="line"/>
      <point x="106" y="514" type="line"/>
      <point x="64" y="474" type="line"/>
      <point x="119" y="698" type="line"/>
      <point x="317" y="698" type="line"/>
      <point x="317" y="669" type="line"/>
    </contour>
    <contour>
      <point x="579" y="134" type="curve" smooth="yes"/>
      <point x="579" y="69"/>
      <point x="624" y="22"/>
      <point x="686" y="22" type="curve" smooth="yes"/>
      <point x="748" y="22"/>
      <point x="792" y="69"/>
      <point x="792" y="134" type="curve" smooth="yes"/>
      <point x="792" y="197"/>
      <point x="747" y="243"/>
      <point x="689" y="243" type="curve" smooth="yes"/>
      <point x="623" y="243"/>
      <point x="579" y="194"/>
    </contour>
    <contour>
      <point x="716" y="418" type="line"/>
      <point x="758" y="418" type="line"/>
      <point x="620" y="231" type="line"/>
      <point x="618" y="233" type="line"/>
      <point x="638" y="257"/>
      <point x="666" y="267"/>
      <point x="700" y="267" type="curve" smooth="yes"/>
      <point x="768" y="267"/>
      <point x="824" y="209"/>
      <point x="824" y="134" type="curve" smooth="yes"/>
      <point x="824" y="50"/>
      <point x="767" y="-8"/>
      <point x="686" y="-8" type="curve" smooth="yes"/>
      <point x="605" y="-8"/>
      <point x="548" y="50"/>
      <point x="548" y="134" type="curve" smooth="yes"/>
      <point x="548" y="168"/>
      <point x="561" y="202"/>
      <point x="577" y="224" type="curve" smooth="yes"/>
    </contour>
  </outline>
</glyph>
<glyph name="uniFF12" format="1">
  <advance width="568"/>
  <unicode hex="FF12"/>
  <outline>
    <contour>
      <point x="33" y="0" type="line"/>
      <point x="359" y="345" type="line" smooth="yes"/>
      <point x="406" y="395"/>
      <point x="441" y="444"/>
      <point x="441" y="511" type="curve" smooth="yes"/>
      <point x="441" y="579"/>
      <point x="396" y="659"/>
      <point x="293" y="659" type="curve" smooth="yes"/>
      <point x="191" y="659"/>
      <point x="123" y="580"/>
      <point x="123" y="460" type="curve"/>
      <point x="69" y="460" type="line"/>
      <point x="69" y="609"/>
      <point x="156" y="711"/>
      <point x="293" y="711" type="curve" smooth="yes"/>
      <point x="439" y="711"/>
      <point x="497" y="597"/>
      <point x="497" y="507" type="curve" smooth="yes"/>
      <point x="497" y="431"/>
      <point x="456" y="370"/>
      <point x="403" y="315" type="curve" smooth="yes"/>
      <point x="147" y="52" type="line"/>
      <point x="511" y="52" type="line"/>
      <point x="511" y="0" type="line"/>
    </contour>
  </outline>
</glyph>
<glyph name="uniFF14" format="1">
  <advance width="568"/>
  <unicode hex="FF14"/>
  <outline>
    <contour>
      <point x="20" y="140" type="line"/>
      <point x="66" y="189" type="line"/>
      <point x="395" y="189" type="line" smooth="yes"/>
      <point x="406" y="189" type="line" smooth="yes"/>
      <point x="537" y="189" type="line"/>
      <point x="537" y="140" type="line"/>
    </contour>
    <contour>
      <point x="79" y="140" type="line"/>
      <point x="20" y="140" type="line"/>
      <point x="406" y="700" type="line"/>
      <point x="428" y="700" type="line"/>
      <point x="428" y="0" type="line"/>
      <point x="372" y="0" type="line"/>
      <point x="372" y="162" type="line" smooth="yes"/>
      <point x="372" y="171" type="line" smooth="yes"/>
      <point x="372" y="573" type="line"/>
    </contour>
  </outline>
</glyph>
<glyph name="uniFF15" format="1">
  <advance width="568"/>
  <unicode hex="FF15"/>
  <outline>
    <contour>
      <point x="514" y="230" type="curve" smooth="yes"/>
      <point x="514" y="71"/>
      <point x="407" y="-10"/>
      <point x="276" y="-10" type="curve" smooth="yes"/>
      <point x="155" y="-10"/>
      <point x="86" y="53"/>
      <point x="44" y="137" type="curve"/>
      <point x="90" y="168" type="line"/>
      <point x="123" y="97"/>
      <point x="188" y="42"/>
      <point x="276" y="42" type="curve" smooth="yes"/>
      <point x="384" y="42"/>
      <point x="457" y="112"/>
      <point x="457" y="230" type="curve" smooth="yes"/>
      <point x="457" y="336"/>
      <point x="383" y="408"/>
      <point x="287" y="408" type="curve" smooth="yes"/>
      <point x="212" y="408"/>
      <point x="161" y="385"/>
      <point x="98" y="327" type="curve"/>
      <point x="135" y="379" type="line"/>
      <point x="175" y="427"/>
      <point x="237" y="458"/>
      <point x="308" y="458" type="curve" smooth="yes"/>
      <point x="424" y="458"/>
      <point x="514" y="365"/>
    </contour>
    <contour>
      <point x="232" y="651" type="line"/>
      <point x="168" y="394" type="line"/>
      <point x="98" y="327" type="line"/>
      <point x="190" y="700" type="line"/>
      <point x="520" y="700" type="line"/>
      <point x="520" y="651" type="line"/>
    </contour>
  </outline>
</glyph>
<glyph name="uniFF18" format="1">
  <advance width="568"/>
  <unicode hex="FF18"/>
  <outline>
    <contour>
      <point x="99" y="535" type="curve" smooth="yes"/>
      <point x="99" y="630"/>
      <point x="178" y="710"/>
      <point x="284" y="710" type="curve" smooth="yes"/>
      <point x="390" y="710"/>
      <point x="469" y="630"/>
      <point x="469" y="535" type="curve" smooth="yes"/>
      <point x="469" y="430"/>
      <point x="387" y="360"/>
      <point x="284" y="360" type="curve" smooth="yes"/>
      <point x="181" y="360"/>
      <point x="99" y="430"/>
    </contour>
    <contour>
      <point x="152" y="529" type="curve" smooth="yes"/>
      <point x="152" y="451"/>
      <point x="220" y="396"/>
      <point x="284" y="396" type="curve" smooth="yes"/>
      <point x="348" y="396"/>
      <point x="416" y="451"/>
      <point x="416" y="529" type="curve" smooth="yes"/>
      <point x="416" y="603"/>
      <point x="361" y="661"/>
      <point x="284" y="661" type="curve" smooth="yes"/>
      <point x="207" y="661"/>
      <point x="152" y="603"/>
    </contour>
    <contour>
      <point x="76" y="188" type="curve" smooth="yes"/>
      <point x="76" y="309"/>
      <point x="175" y="383"/>
      <point x="284" y="383" type="curve" smooth="yes"/>
      <point x="393" y="383"/>
      <point x="492" y="309"/>
      <point x="492" y="188" type="curve" smooth="yes"/>
      <point x="492" y="79"/>
      <point x="409" y="-10"/>
      <point x="284" y="-10" type="curve" smooth="yes"/>
      <point x="159" y="-10"/>
      <point x="76" y="79"/>
    </contour>
    <contour>
      <point x="129" y="194" type="curve" smooth="yes"/>
      <point x="129" y="100"/>
      <point x="196" y="39"/>
      <point x="284" y="39" type="curve" smooth="yes"/>
      <point x="372" y="39"/>
      <point x="439" y="100"/>
      <point x="439" y="194" type="curve" smooth="yes"/>
      <point x="439" y="282"/>
      <point x="362" y="347"/>
      <point x="284" y="347" type="curve" smooth="yes"/>
      <point x="206" y="347"/>
      <point x="129" y="282"/>
    </contour>
  </outline>
</glyph>
<glyph name="adieresis.alt" format="1">
  <advance width="558"/>
  <outline>
    <contour>
      <point x="435.4" y="460" type="line"/>
      <point x="484.4" y="460" type="line"/>
      <point x="484.4" y="0" type="line"/>
      <point x="435.4" y="0" type="line"/>
    </contour>
    <contour>
      <point x="39" y="230" type="curve" smooth="yes"/>
      <point x="39" y="378.2"/>
      <point x="138" y="470"/>
      <point x="261" y="470" type="curve" smooth="yes"/>
      <point x="379.2" y="470"/>
      <point x="456" y="367"/>
      <point x="456" y="230" type="curve" smooth="yes"/>
      <point x="456" y="93"/>
      <point x="379.2" y="-10"/>
      <point x="261" y="-10" type="curve" smooth="yes"/>
      <point x="138" y="-10"/>
      <point x="39" y="81.8"/>
    </contour>
    <contour>
      <point x="91.6" y="230" type="curve" smooth="yes"/>
      <point x="91.6" y="110"/>
      <point x="170.8" y="39"/>
      <point x="268.2" y="39" type="curve" smooth="yes"/>
      <point x="353.8" y="39"/>
      <point x="432.4" y="120"/>
      <point x="432.4" y="230" type="curve" smooth="yes"/>
      <point x="432.4" y="340"/>
      <point x="353.8" y="421"/>
      <point x="268.2" y="421" type="curve" smooth="yes"/>
      <point x="170.8" y="421"/>
      <point x="91.6" y="350"/>
    </contour>
    <contour>
      <point x="339.6" y="587.4" type="curve" smooth="yes"/>
      <point x="339.6" y="608.2"/>
      <point x="356.6" y="624.8"/>
      <point x="377" y="624.8" type="curve" smooth="yes"/>
      <point x="397.4" y="624.8"/>
      <point x="414.4" y="608.2"/>
      <point x="414.4" y="587.4" type="curve" smooth="yes"/>
      <point x="414.4" y="566.6"/>
      <point x="397.4" y="550"/>
      <point x="377" y="550" type="curve" smooth="yes"/>
      <point x="356.6" y="550"/>
      <point x="339.6" y="566.6"/>
    </contour>
    <contour>
      <point x="139.6" y="587.4" type="curve" smooth="yes"/>
      <point x="139.6" y="608.2"/>
      <point x="156.6" y="624.8"/>
      <point x="177" y="624.8" type="curve" smooth="yes"/>
      <point x="197.4" y="624.8"/>
      <point x="214.4" y="608.2"/>
      <point x="214.4" y="587.4" type="curve" smooth="yes"/>
      <point x="214.4" y="566.6"/>
      <point x="197.4" y="550"/>
      <point x="177" y="550" type="curve" smooth="yes"/>
      <point x="156.6" y="550"/>
      <point x="139.6" y="566.6"/>
    </contour>
  </outline>
</glyph>
<glyph name="aogonek.alt" format="1">
  <advance width="557"/>
  <outline>
    <contour>
      <point x="435.4" y="460" type="line"/>
      <point x="484.4" y="460" type="line"/>
      <point x="484.4" y="0" type="line"/>
      <point x="435.4" y="0" type="line"/>
    </contour>
    <contour>
      <point x="39" y="230" type="curve" smooth="yes"/>
      <point x="39" y="378.2"/>
      <point x="138" y="470"/>
      <point x="261" y="470" type="curve" smooth="yes"/>
      <point x="379.2" y="470"/>
      <point x="456" y="367"/>
      <point x="456" y="230" type="curve" smooth="yes"/>
      <point x="456" y="93"/>
      <point x="379.2" y="-10"/>
      <point x="261" y="-10" type="curve" smooth="yes"/>
      <point x="138" y="-10"/>
      <point x="39" y="81.8"/>
    </contour>
    <contour>
      <point x="91.6" y="230" type="curve" smooth="yes"/>
      <point x="91.6" y="110"/>
      <point x="170.8" y="39"/>
      <point x="268.2" y="39" type="curve" smooth="yes"/>
      <point x="353.8" y="39"/>
      <point x="432.4" y="120"/>
      <point x="432.4" y="230" type="curve" smooth="yes"/>
      <point x="432.4" y="340"/>
      <point x="353.8" y="421"/>
      <point x="268.2" y="421" type="curve" smooth="yes"/>
      <point x="170.8" y="421"/>
      <point x="91.6" y="350"/>
    </contour>
    <contour>
      <point x="501" y="-147.2" type="curve"/>
      <point x="523.6" y="-180" type="line"/>
      <point x="508.6" y="-200"/>
      <point x="474.6" y="-220"/>
      <point x="431.6" y="-220" type="curve" smooth="yes"/>
      <point x="355.6" y="-220"/>
      <point x="316.6" y="-183"/>
      <point x="316.6" y="-128" type="curve"/>
      <point x="368.6" y="-116" type="line"/>
      <point x="368.6" y="-156"/>
      <point x="396.6" y="-174"/>
      <point x="434.6" y="-174" type="curve" smooth="yes"/>
      <point x="466.2" y="-174"/>
      <point x="486.6" y="-162.2"/>
    </contour>
    <contour>
      <point x="368.6" y="-116" type="curve"/>
      <point x="316.6" y="-128" type="line"/>
      <point x="316.6" y="-65"/>
      <point x="387" y="-17"/>
      <point x="457" y="19" type="curve"/>
      <point x="484.4" y="0" type="line"/>
      <point x="426" y="-26"/>
      <point x="368.6" y="-71"/>
    </contour>
  </outline>
</glyph>
